<mxfile host="app.diagrams.net" modified="2023-04-26T19:06:38.319Z" agent="Mozilla/5.0 (Windows NT 10.0; Win64; x64) AppleWebKit/537.36 (KHTML, like Gecko) Chrome/112.0.0.0 Safari/537.36" etag="GsOYKTIla3akLt2Z7iG3" version="21.2.1" type="device">
  <diagram name="Page-1" id="DvSvLqDO462lNcZpexrm">
    <mxGraphModel dx="1350" dy="1305" grid="1" gridSize="10" guides="1" tooltips="1" connect="1" arrows="1" fold="1" page="1" pageScale="1" pageWidth="850" pageHeight="1100" math="0" shadow="0">
      <root>
        <mxCell id="0" />
        <mxCell id="1" parent="0" />
        <mxCell id="zIZ2d32dv9eXGciVrMFY-1" value="&lt;p style=&quot;line-height: 120%;&quot;&gt;&lt;font face=&quot;Courier New&quot;&gt;Home&lt;/font&gt;&lt;/p&gt;" style="rounded=1;whiteSpace=wrap;arcSize=7;labelBackgroundColor=none;html=1;labelPosition=center;verticalLabelPosition=top;align=center;verticalAlign=bottom;fontColor=#000000;strokeColor=#000000;fillColor=#021138;" parent="1" vertex="1">
          <mxGeometry x="1006" y="50" width="320" height="1790" as="geometry" />
        </mxCell>
        <mxCell id="zIZ2d32dv9eXGciVrMFY-2" value="" style="rounded=1;whiteSpace=wrap;html=1;labelBackgroundColor=none;strokeColor=none;fontFamily=Courier New;fontSize=12;fontColor=#000000;fillColor=#080826;arcSize=35;" parent="1" vertex="1">
          <mxGeometry x="1006" y="1781" width="320" height="60" as="geometry" />
        </mxCell>
        <mxCell id="zIZ2d32dv9eXGciVrMFY-3" value="" style="ellipse;whiteSpace=wrap;html=1;aspect=fixed;labelBackgroundColor=none;strokeColor=none;fontFamily=Courier New;fontSize=12;fontColor=#000000;fillColor=#B3B3B3;gradientColor=#021138;gradientDirection=west;" parent="1" vertex="1">
          <mxGeometry x="1126" y="110" width="190" height="190" as="geometry" />
        </mxCell>
        <mxCell id="zIZ2d32dv9eXGciVrMFY-4" value="" style="shape=actor;whiteSpace=wrap;html=1;labelBackgroundColor=none;strokeColor=#021138;fontFamily=Courier New;fontSize=12;fontColor=#000000;fillColor=#B3B3B3;strokeWidth=2;" parent="1" vertex="1">
          <mxGeometry x="1163.19" y="134.38" width="115.62" height="141.25" as="geometry" />
        </mxCell>
        <mxCell id="zIZ2d32dv9eXGciVrMFY-5" value="&lt;font&gt;Contact me&lt;/font&gt;" style="rounded=1;whiteSpace=wrap;html=1;labelBackgroundColor=none;strokeColor=none;fontFamily=Verdana;fontSize=12;fontColor=#021138;fillColor=#B3B3B3;arcSize=50;fontStyle=1" parent="1" vertex="1">
          <mxGeometry x="1206" y="71.5" width="80" height="20" as="geometry" />
        </mxCell>
        <mxCell id="zIZ2d32dv9eXGciVrMFY-6" value="&lt;h1&gt;&lt;br&gt;&lt;/h1&gt;&lt;p&gt;Lorem ipsum dolor sit amet, consectetur adipisicing elit, sed do eiusmod tempor incididunt ut labore et dolore magna aliqua.&lt;/p&gt;" style="text;html=1;strokeColor=none;fillColor=none;spacing=5;spacingTop=-20;whiteSpace=wrap;overflow=hidden;rounded=0;fontSize=12;fontFamily=Verdana;fontColor=#B3B3B3;" parent="1" vertex="1">
          <mxGeometry x="1032.25" y="311" width="256" height="110" as="geometry" />
        </mxCell>
        <mxCell id="zIZ2d32dv9eXGciVrMFY-7" value="" style="html=1;verticalLabelPosition=bottom;align=center;labelBackgroundColor=#ffffff;verticalAlign=top;strokeWidth=2;strokeColor=none;shadow=0;dashed=0;shape=mxgraph.ios7.icons.pause;pointerEvents=1;fontFamily=Verdana;fontSize=12;fontColor=#FFFFFF;fillColor=#B3B3B3;rotation=90;" parent="1" vertex="1">
          <mxGeometry x="1037.5" y="71.5" width="15" height="27" as="geometry" />
        </mxCell>
        <mxCell id="zIZ2d32dv9eXGciVrMFY-8" value="" style="html=1;verticalLabelPosition=bottom;align=center;labelBackgroundColor=#ffffff;verticalAlign=top;strokeWidth=2;strokeColor=none;shadow=0;dashed=0;shape=mxgraph.ios7.icons.pause;pointerEvents=1;fontFamily=Verdana;fontSize=12;fontColor=#FFFFFF;fillColor=#B3B3B3;rotation=90;" parent="1" vertex="1">
          <mxGeometry x="1037.5" y="71.5" width="15" height="27" as="geometry" />
        </mxCell>
        <mxCell id="zIZ2d32dv9eXGciVrMFY-9" value="&lt;h1 style=&quot;font-size: 22px;&quot;&gt;Ultimos projetos&lt;/h1&gt;" style="text;html=1;strokeColor=none;fillColor=none;spacing=5;spacingTop=-20;whiteSpace=wrap;overflow=hidden;rounded=0;fontSize=22;fontFamily=Verdana;fontColor=#FFFFFF;" parent="1" vertex="1">
          <mxGeometry x="1069.25" y="987.48" width="220" height="40" as="geometry" />
        </mxCell>
        <mxCell id="zIZ2d32dv9eXGciVrMFY-10" value="" style="html=1;verticalLabelPosition=bottom;align=center;labelBackgroundColor=#ffffff;verticalAlign=top;strokeWidth=2;strokeColor=#B3B3B3;shadow=0;dashed=0;shape=mxgraph.ios7.icons.documents;fontFamily=Verdana;fontSize=12;fontColor=#FFFFFF;fillColor=none;gradientColor=none;gradientDirection=north;" parent="1" vertex="1">
          <mxGeometry x="1037.5" y="989.13" width="32.5" height="30" as="geometry" />
        </mxCell>
        <mxCell id="zIZ2d32dv9eXGciVrMFY-11" value="" style="rounded=1;whiteSpace=wrap;html=1;labelBackgroundColor=#FFFFFF;strokeColor=none;fontFamily=Verdana;fontSize=11;fontColor=#FFFFFF;fillColor=#B3B3B3;gradientColor=none;gradientDirection=east;arcSize=6;" parent="1" vertex="1">
          <mxGeometry x="1036" y="1059.88" width="248.5" height="160.12" as="geometry" />
        </mxCell>
        <mxCell id="zIZ2d32dv9eXGciVrMFY-12" value="" style="html=1;verticalLabelPosition=bottom;align=center;labelBackgroundColor=#ffffff;verticalAlign=top;strokeWidth=2;strokeColor=#B3B3B3;shadow=0;dashed=0;shape=mxgraph.ios7.icons.folders;rounded=1;fontFamily=Verdana;fontSize=11;fontColor=#FFFFFF;fillColor=none;gradientColor=none;gradientDirection=east;" parent="1" vertex="1">
          <mxGeometry x="1052.75" y="1042" width="210" height="147.75" as="geometry" />
        </mxCell>
        <mxCell id="zIZ2d32dv9eXGciVrMFY-13" value="" style="rounded=0;whiteSpace=wrap;html=1;labelBackgroundColor=none;strokeColor=none;fontFamily=Courier New;fontSize=12;fontColor=#000000;fillColor=#080826;" parent="1" vertex="1">
          <mxGeometry x="1006" y="1751" width="320" height="50" as="geometry" />
        </mxCell>
        <mxCell id="Arj9wc5PMB0PErZFxd0g-94" value="&lt;h1&gt;&lt;font color=&quot;#ffffff&quot;&gt;Sobre mim:&lt;/font&gt;&lt;/h1&gt;&lt;p&gt;Lorem ipsum dolor sit amet, consectetur adipisicing elit, sed do eiusmod tempor incididunt ut labore et dolore magna aliqua.&lt;/p&gt;&lt;p&gt;Lorem ipsum dolor sit amet, consectetur adipisicing elit, sed do eiusmod tempor incididunt ut labore et dolore magna aliqua.&lt;/p&gt;" style="text;html=1;strokeColor=none;fillColor=none;spacing=5;spacingTop=-20;whiteSpace=wrap;overflow=hidden;rounded=0;fontSize=12;fontFamily=Verdana;fontColor=#B3B3B3;" parent="1" vertex="1">
          <mxGeometry x="1032.25" y="477" width="256" height="180" as="geometry" />
        </mxCell>
        <mxCell id="Arj9wc5PMB0PErZFxd0g-97" value="Program" style="rounded=1;whiteSpace=wrap;html=1;labelBackgroundColor=none;strokeColor=none;strokeWidth=4;fontFamily=Courier New;fontSize=16;fontColor=#001224;fillColor=#B3B3B3;gradientColor=none;gradientDirection=east;fontStyle=1" parent="1" vertex="1">
          <mxGeometry x="1122.25" y="738.5" width="76" height="58" as="geometry" />
        </mxCell>
        <mxCell id="Arj9wc5PMB0PErZFxd0g-122" value="&lt;font style=&quot;font-size: 16px;&quot;&gt;Dev&lt;/font&gt;" style="rounded=1;whiteSpace=wrap;html=1;labelBackgroundColor=none;strokeColor=#B3B3B3;strokeWidth=4;fontFamily=Courier New;fontSize=16;fontColor=#B3B3B3;fillColor=none;gradientColor=none;gradientDirection=east;fontStyle=1" parent="1" vertex="1">
          <mxGeometry x="1037.5" y="737" width="76" height="58" as="geometry" />
        </mxCell>
        <mxCell id="Arj9wc5PMB0PErZFxd0g-123" value="&lt;font style=&quot;font-size: 16px;&quot;&gt;Backend&lt;/font&gt;" style="rounded=1;whiteSpace=wrap;html=1;labelBackgroundColor=none;strokeColor=none;strokeWidth=4;fontFamily=Courier New;fontSize=16;fontColor=#001224;fillColor=#B3B3B3;gradientColor=none;gradientDirection=east;fontStyle=1" parent="1" vertex="1">
          <mxGeometry x="1210" y="737" width="76" height="58" as="geometry" />
        </mxCell>
        <mxCell id="Arj9wc5PMB0PErZFxd0g-125" value="&lt;h1&gt;&lt;font color=&quot;#ffffff&quot;&gt;Dev&lt;/font&gt;&lt;/h1&gt;&lt;p&gt;Lorem ipsum dolor sit amet, consectetur adipisicing elit, sed do eiusmod tempor incididunt ut labore et dolore magna aliqua.&lt;/p&gt;&lt;p&gt;Lorem ipsum dolor sit amet, consectetur adipisicing elit, sed do eiusmod tempor incididunt ut labore et dolore magna aliqua.&lt;br&gt;&lt;/p&gt;" style="text;html=1;strokeColor=none;fillColor=none;spacing=5;spacingTop=-20;whiteSpace=wrap;overflow=hidden;rounded=0;fontSize=12;fontFamily=Verdana;fontColor=#B3B3B3;" parent="1" vertex="1">
          <mxGeometry x="1032.25" y="830.58" width="257" height="117.42" as="geometry" />
        </mxCell>
        <mxCell id="Arj9wc5PMB0PErZFxd0g-134" value="" style="html=1;verticalLabelPosition=bottom;align=center;labelBackgroundColor=#ffffff;verticalAlign=top;strokeWidth=2;strokeColor=#B3B3B3;shadow=0;dashed=0;shape=mxgraph.ios7.icons.tools;pointerEvents=1;rounded=1;fontFamily=Courier New;fontSize=18;fontColor=#001224;fillColor=none;gradientColor=none;gradientDirection=east;" parent="1" vertex="1">
          <mxGeometry x="1095.8" y="832" width="39.7" height="39.7" as="geometry" />
        </mxCell>
        <mxCell id="SrvByaslTAQvHbv3p62e-2" value="&lt;h1 style=&quot;border-color: var(--border-color); font-family: Verdana; font-style: normal; font-variant-ligatures: normal; font-variant-caps: normal; letter-spacing: normal; orphans: 2; text-align: left; text-indent: 0px; text-transform: none; widows: 2; word-spacing: 0px; -webkit-text-stroke-width: 0px; text-decoration-thickness: initial; text-decoration-style: initial; text-decoration-color: initial;&quot;&gt;&lt;font style=&quot;border-color: var(--border-color);&quot; color=&quot;#ffffff&quot;&gt;Meu nome Ã© Pedro Cravo&lt;/font&gt;&lt;/h1&gt;" style="text;whiteSpace=wrap;html=1;" parent="1" vertex="1">
          <mxGeometry x="1032.25" y="277.62" width="174" height="100" as="geometry" />
        </mxCell>
        <mxCell id="SrvByaslTAQvHbv3p62e-5" value="Mensagem" style="rounded=1;whiteSpace=wrap;html=1;labelBackgroundColor=none;strokeColor=#B3B3B3;strokeWidth=4;fontFamily=Verdana;fontSize=13;fontColor=#B3B3B3;fillColor=none;gradientColor=none;gradientDirection=east;fontStyle=1;arcSize=5;labelPosition=center;verticalLabelPosition=middle;align=center;verticalAlign=middle;" parent="1" vertex="1">
          <mxGeometry x="1040.75" y="1549" width="248.5" height="140" as="geometry" />
        </mxCell>
        <mxCell id="SrvByaslTAQvHbv3p62e-6" value="&lt;h1&gt;&lt;font color=&quot;#ffffff&quot;&gt;Entre em contato:&lt;/font&gt;&lt;/h1&gt;" style="text;html=1;strokeColor=none;fillColor=none;spacing=5;spacingTop=-20;whiteSpace=wrap;overflow=hidden;rounded=0;fontSize=12;fontFamily=Verdana;fontColor=#B3B3B3;" parent="1" vertex="1">
          <mxGeometry x="1046" y="1235.75" width="205" height="70" as="geometry" />
        </mxCell>
        <mxCell id="SrvByaslTAQvHbv3p62e-7" value="" style="sketch=0;outlineConnect=0;fontColor=#232F3E;gradientColor=none;fillColor=#B3B3B3;strokeColor=none;dashed=0;verticalLabelPosition=bottom;verticalAlign=top;align=center;html=1;fontSize=12;fontStyle=0;aspect=fixed;pointerEvents=1;shape=mxgraph.aws4.email_2;rounded=1;labelBackgroundColor=none;strokeWidth=4;fontFamily=Courier New;gradientDirection=north;" parent="1" vertex="1">
          <mxGeometry x="1042.6" y="1328.57" width="46.5" height="29.21" as="geometry" />
        </mxCell>
        <mxCell id="SrvByaslTAQvHbv3p62e-8" value="&lt;h1 style=&quot;font-size: 12px;&quot;&gt;&lt;font style=&quot;font-size: 12px;&quot;&gt;Email: pedroh.s.cravo@gmail.com&lt;/font&gt;&lt;/h1&gt;" style="text;html=1;strokeColor=none;fillColor=none;spacing=5;spacingTop=-20;whiteSpace=wrap;overflow=hidden;rounded=0;fontSize=12;fontFamily=Verdana;fontColor=#B3B3B3;align=left;" parent="1" vertex="1">
          <mxGeometry x="1093" y="1328.57" width="200" height="30" as="geometry" />
        </mxCell>
        <mxCell id="SrvByaslTAQvHbv3p62e-9" value="" style="shape=mxgraph.signs.tech.telephone_3;html=1;pointerEvents=1;fillColor=#B3B3B3;strokeColor=none;verticalLabelPosition=bottom;verticalAlign=top;align=center;rounded=1;labelBackgroundColor=none;strokeWidth=4;fontFamily=Courier New;fontSize=12;fontColor=#B3B3B3;" parent="1" vertex="1">
          <mxGeometry x="1047.35" y="1375.75" width="37" height="40" as="geometry" />
        </mxCell>
        <mxCell id="SrvByaslTAQvHbv3p62e-10" value="&lt;h1 style=&quot;font-size: 12px;&quot;&gt;Telefone: +55(27)99729563&lt;/h1&gt;" style="text;html=1;strokeColor=none;fillColor=none;spacing=5;spacingTop=-20;whiteSpace=wrap;overflow=hidden;rounded=0;fontSize=12;fontFamily=Verdana;fontColor=#B3B3B3;align=left;" parent="1" vertex="1">
          <mxGeometry x="1094.5" y="1380.75" width="200" height="30" as="geometry" />
        </mxCell>
        <mxCell id="SrvByaslTAQvHbv3p62e-11" value="&lt;h1 style=&quot;font-size: 12px;&quot;&gt;Mande uma mensagem:&lt;/h1&gt;" style="text;html=1;strokeColor=none;fillColor=none;spacing=5;spacingTop=-20;whiteSpace=wrap;overflow=hidden;rounded=0;fontSize=12;fontFamily=Verdana;fontColor=#B3B3B3;align=left;" parent="1" vertex="1">
          <mxGeometry x="1066" y="1449" width="200" height="10" as="geometry" />
        </mxCell>
        <mxCell id="SrvByaslTAQvHbv3p62e-12" value="Nome" style="rounded=1;whiteSpace=wrap;html=1;labelBackgroundColor=none;strokeColor=#B3B3B3;strokeWidth=4;fontFamily=Verdana;fontSize=12;fontColor=#B3B3B3;fillColor=none;gradientColor=none;gradientDirection=east;fontStyle=1;arcSize=9;" parent="1" vertex="1">
          <mxGeometry x="1038.65" y="1469" width="248.5" height="30.15" as="geometry" />
        </mxCell>
        <mxCell id="SrvByaslTAQvHbv3p62e-13" value="Email" style="rounded=1;whiteSpace=wrap;html=1;labelBackgroundColor=none;strokeColor=#B3B3B3;strokeWidth=4;fontFamily=Verdana;fontSize=12;fontColor=#B3B3B3;fillColor=none;gradientColor=none;gradientDirection=east;fontStyle=1;arcSize=9;" parent="1" vertex="1">
          <mxGeometry x="1040.75" y="1509" width="248.5" height="30.15" as="geometry" />
        </mxCell>
        <mxCell id="SrvByaslTAQvHbv3p62e-15" value="&lt;h1 style=&quot;font-size: 14px;&quot;&gt;Feito por Pedro Cravo&lt;/h1&gt;" style="text;html=1;strokeColor=none;fillColor=none;spacing=5;spacingTop=-20;whiteSpace=wrap;overflow=hidden;rounded=0;fontSize=14;fontFamily=Verdana;fontColor=#B3B3B3;align=left;" parent="1" vertex="1">
          <mxGeometry x="1065.75" y="1767.81" width="184" height="33.19" as="geometry" />
        </mxCell>
        <mxCell id="SrvByaslTAQvHbv3p62e-22" value="" style="shape=image;verticalLabelPosition=bottom;labelBackgroundColor=default;verticalAlign=top;aspect=fixed;imageAspect=0;image=data:image/png,iVBORw0KGgoAAAANSUhEUgAAAyoAAADaCAYAAABJs7ZDAAAAAXNSR0IArs4c6QAAIABJREFUeF7tnOF2pCmORHsfcJ52HnD3+FR7y+XK9IeIkBBw569BhG4EZMqu6f/5h/9BAAIQgAAEIAABCEAAAhBoRuB/mulBDgQgAAEIQAACEIAABCAAgX8YVAgBBCAAAQhAAAIQgAAEINCOAINKO0sQBAEIQAACEIAABCAAAQgwqJABCEAAAhCAAAQgAAEIQKAdAQaVdpYgCAIQgAAEIAABCEAAAhBgUCEDEIAABCAAAQhAAAIQgEA7Agwq7SxBEAQgAAEIQAACEIAABCDAoEIGIAABCEAAAhCAAAQgAIF2BBhU2lmCIAhAAAIQgAAEIAABCECAQYUMQAACEIAABCAAAQhAAALtCDCotLMEQRCAAAQgAAEIQAACEIAAgwoZgAAEIAABCEAAAhCAAATaEWBQaWcJgiAAAQhAAAIQgAAEIAABBhUyAAEIQAACEIAABCAAAQi0I8Cg0s4SBEEAAhCAAAQgAAEIQAACDCpkAAIQgAAEIAABCEAAAhBoR4BBpZ0lCIIABCAAAQhAAAIQgAAEGFTIAAQgAAEIQAACEIAABCDQjgCDSjtLEAQBCEAAAhCAAAQgAAEIMKiQAQhAAAIQgAAEIAABCECgHQEGlXaWIAgCEIAABCAAAQhAQCHw3//+93+V/SN7//Of//A9egSUsAbAAjy2QgACEIAABCAAAQisI1AxkMx0xxAzQ+3vPQwqHo5UgQAEIAABCEAAAhBIJtB1MPmpbYaW+VAwqMyzYycEIAABCEAAAhCAQDKBHYeTd0gYWmJhYVCJ8WI1BCAAAQhAAAIQgEAygZOGE/7aMh8WBpV5duyEAAQgAAEIQAACEDARuGU44a8t44FhUBlnxUoIQAACEIAABCAAATOB2weU7zj552G/iTComC8b5SAAAQhAAAIQgAAEngkwoPzMiIHln38YVJ7vESsgAAEIQAACEIAABAwEGE7iEG8eWBhU4nlhBwQgAAEIQAACEIBAgAADSgDWm6U3DiwMKnpuqAABCEAAAhCAAAQg8IYAQ4o3GjcNLAwq3uxQDQLbE8j8QLnpcd0+CDQAAQhAQCSQ+XkiSjti+w2fqQwqR0SVJiAQJ9DpA+SGxzbuEDsgAAEI7Emg0+fLngRjqk/+DGVQiWWB1RDYmsAOHx4nP7hbhwfxEIAABAYI7PA5M9DGdktO/exkUNkuigiGwDiB3T8wTn14xx1kJQQgAIE9COzweeP4TOnep6PHToljUOnkBlogYCDQ/RFVWjztAVZYsPc9gZPvwGrfuYOrHeh3fqf7tjKfcMjJJoNKDleqQqCcQKdHMrv5lR9G2b1RP07gpuzH6eTu4C7m8u1evcPd65hBuPiSy6DiY0klCCwh0OFBXNL4P//80/EDahWLG8+9Ofvd/OYudnMkX8+q+7dj1lax+kjBjry+ppdBJf8ucwIE7ARWPnr2ZgwFd3+IDQiuKUH2+1vNfezvkaJwxR08LVPVDHfmx6Ci3Fb2QqCYQPXjVtye5bidH2QLgAOLkPt9TeU+7uvdK+XVd/H0/FTy3JUlg8pZbwjdHEqg8jE7AeGuD/IJ7N09kH030fp63Md65hknVt7F2zJTxXZHrgwqGbeZmhAwEqh6wIyS25Ta8VFuA2+xEHK/2ICE47mPCVCLSlbdx9szAue/Ay0PKlVQi+4ix7wgcPvDsSoU3C0feTLsY5ldidxnE15fn/u43oOIguw7SR7+diOb+ceJu3CfHlQqIEYuEmvzCewS6nwS+Sdwv/yMya+fqbsiuXcT7VuP+9jXm6/Ksu8kOfg5B/D/55+pQSUb3B7X906VPCq5vnO3cvmS31y+SnWyr9Dbcy/3sbdvmXcS72Pe3+xFeFDJhBWzjdWrCPDA5JDnbuVwfVWVDNexHjmJ7I9QOncN97Gft1l3Eq/nvc7y5ENRZ19Cg0ompHnr2LmCQOdQr+ChnMm9UujN7yXD8+xcO8m+i+T+dbiPfTzMupd47PH4Nn+GB5UsMB7bqFJNgAfHQ5x75eE4W4Ucz5Lz7CP/Ho6nVOE+rncy607irdfbm3xiUPFm56pqPDya3VkPjabqzt1kud538l/PvPuJ3MO1DmXcSTzN8zTDrw+13TwbGlSyYOTZR+UqAt0CXdW3eg53SiXo30+W/UzfVST/dax3PIm7WO9axp3ExxofT/eOQaUmR8eewkMUszbjQYkpYPVPBMhzfj5W3wE8HvN4pU94NOaRa1WG13jocmesjtvDTv4xqIxlgFVvCHQK8w4muR+THXreTSOZznOsKv94mOfhR+UKH/Ew18PP6m4v8a3Gt1ennOolg8q6TB1xMo/SmI3uB2TsVFbNEiDXs+Te78u+A3jm9+ypIp4+Eer9c7d/3MEefjt97eApg0qPXG2rokOIu8NzPhrdez1JH9n2upl5D/DK61W0Gt5GifVY7/SNO9jD04y/lK32NmVQWd1Ur7jspSb6cOH1z/5Gee6VlvPVkm+Px1n3AH88/riqZPiMxy53/qzj9AqPcjxSq57iMYOKmoTD9keDzQPFoHLYFfirHTKuORx9U0ZOw5MRSuvWuD3Hb6+XTn/wxuuNu5rL65U+M6i4U7F5vWioV4a3O+ooy+793KyPnM+7774HeDHvReVOp+947nMOX3wsd6nk8nzVPWRQ2SVpRTqjgV4V3CIc08dEOU4fxMYyAmQ9jtp9D/Ag7sHKHU7/8d7jpMsT/PD4UVHF5fmH1hW+M6hUpGSjM6KBXhHa7jijDLv3g77fBMh7LA2uuwD3GPduqx05IAO6qw4fVn1Z1bu/u4LL+xX+M6jcnd2/uo+GmQ+PPxFG+RG//QiQ+THPXHcB3mO8O68iC+vdwYP1HqxWsGsGGFRWJ6fZ+dEg8yXit4FRds2sR06AALl/huW6D7B+Zr3DCvKw1iUHf+7iWg8dpztyUP1XFQYVh/MH1YiGmIfrl/lRbgdF5spWyP3PtrvuA5zPul6OXJCJeCYc3Ku/nMa7ZMcoAUceKu8hg8qos5esiwa4MqxdLYgy69oHumIEyP57Xo47Ad9YHjNXf/dT8UbNhnJ2JqOutVXen33BvavDc7ocuajKBIPKnMfH7oqGtyqonYFHmXXuBW0xAuT/b16u+wDbWBadqyMeRn2K1H7XU/RMJ5vdasF7N8dq9DpyUfVXttaDyiuQPFC5IY6G93Y/orxy3aP6CgK334HvzB13AqYrkvzrzBn/on7NnPGVSPS8dTTXnqxyrvoiupbSvafvko+Wg8ooPB4r/wUbZf958s0eRFlF3fqJbfbZUa2r169kdfMdeOW7I5swXXejZv2LeDZ7Bp87sVyonBlUYrx3XL1DRloNKrPAIg/kjkGq1Bz14Gb2UVZRH0fZZuuI6q5aP8pn9rfEkT4iWiJ1d1yr5hGW61yv9K7yrHVE152s8mVIWedd9clqVrLf7DaDSndQ1cFZdV7Uh+yAruLwdG6U01O97z+f4ZqtKdpD5voon2w2UT2ZbFbXVlnDco2Dqm/Rv3ao55GTn3OyM98n7XjvfSOeeI+clulJi0GlO6QRk05ZE/UiM5ydmUY5RXtRuGZri/biXD/LpYLJrDYnn9W1HJzhuMZFh3fR38IrZ5KT9zlRuEYHTmdaI7rx30l+7v+b9lVBph/HDCrRB9Jr8TnVIg/FrcyjjGbS4bj0FTpneovu2YmFQ2uUT6f1auZu57fKS9W32S8syrlkJW9QqWY7m4NqnavuZ9W5sz5kD7fLBxUVzHcDCa4W6agft/GO8pl1w8XVrfdJV/V5o3zdut6d+8RnVO+u61TOt/Nb5bvq24pB5dZflD1lRPWy+g4qequ1PrHf/eeKF5n3cemgokJ5FQqCq12VqCe38Y7ymXEjg2lEd8b5nxxW6oicPeNb9m+VFE1VexXGmbmr6n/XcxTf1F8WKmeTmb8Tp/DM/LL56m6oWqv17nq/I7pVTzLuJINKxMEL1kZDmhHKrpijbGb7yGT6tYfMc6K9V+g6wb8o1+r1CuNOeczm9hOnFRwU3xhUstMyXt/hY1X+HFoZVMazMbpS9SUjPwwqo+5dsi4a0oxQdkUdZTPbx01MZxnN7Kvy7+YPT4XxiblXeLzKeBYjp86oRuXs6Fkz78ZOexSWle+WqvOrJ2TAn1DVH7cnxw0qlZfNH4/1FaMBdQdyPYHXCqJclD5uYaowmtmLhzPUxveofE/IvcpgnPavlS5mTt1RTcrZ0bOifHdbvwtLRWflAL+b/y69qj/ue8mg4nL2kDrRgLoD2RVjlIvSxy1MFUYzeys9dH6JnOl1xR6V7865V3tX/XKwc/UQ1aKeGz1PZd11/y4cVZ0MKjUJVHxy30kGlRrPtzklGk53IDuCijJRe7iBqcpoZj8+zlAb36Py3TH3as/jdMdWqgzVfmbOX3HmGM29VikcZ3yboaNofDqvqocnHaf8XPXK6cdxg4oTzimBi/QRDecNvKNMIrz57ZBKa3x/tY+3/VVF4bvTO6L0OZ5WbeUsT6W3FWfedsfepULxrZKhqvOnWzGbP+2mnb1b8cvpB4PK2TkLdxcNpjOMYbEFG6I8HJJOZ+pgNFMDL2eoje9R+O6SeaXHcZK+lTNcZ3ucOeuz09kzK79k+1zxV1L4VTJUdT6RUzL4VPvGn6t+ufxYOqh8GK+C+BoeF5QbAzn7gXE6c2c+R3N1OtNRDu51K7ys/BLg5hWtp/DdIfNKf1GWzvUzbCO9ztT/3l/kvO97Hec7ea+otQM/ReMoU7IwSmpsneqZy4/lg4pzWHFBGbPwzFXRYJ7MPMrClYiTmboYzdTBzxlq43sUvp0zr/Q1Ti935Szfn3qfrfmqU4WxU0euCznVFXaVv0hRdY7Quz0LI4yiaxTfXH4cM6i4gERNPG19NJQnc4+ycGXhZKYuRjN18HOG2vgehW/XzCs9jZOrW3ki5649VbmqZLSSnaIzwrKyp4iuXdcqvrm8aDGoOP6q4gKya5hcuqOhPJl7lIXLg8rfcjk1d6610stb/FQYd3xHlH4634XTWHfsp9J/JaeV7BSdEZ6VPUV07bxW8c7hR5tBZXZYcUDYOUBu7dFAnso/ysHtw6lc3ZxG6+HnKKn5dQrjbnlXepknWLfzJN7deqlz8ddJs1mt5DarcZZlZW+zGnfap/jn8KLVoPJp3CgUB4CdwlKhdZT9p5ZTPYhycHtzKlc3p9F6q/284a8qCuNOeVf6GM1jh3WnMO/UR7WvSlYruSk6Z5hW9jajb7c9in8OL1oOKk8Di6Px3YJSpTcayFO9iHJw+3MqVzen0Xqr/WRQ+dmpLnnvkJPRTDvWncC9Sw8OP6I1lLxWclN0Rpnc8NbOMFH3zHroyFnrQUUFy/44gWgYHSGMq8zdEWWQoeZErhmcRmvi6Sip+XUK4w55V/TPU1u/c3f2HfSvclHJbCU3Recs28r+ZjXutE/xUPWCQWWnpBRojYZRDWBBS+EjogzCBzxsOJGpm9FMvdW+nv6bPoXv6swr2mey+HXPZ++rNKxm/8FC6b2DfjUDs/tnuVUzm9U5y+X0t1bhMrtX8VDNG4PKrGuH7ouGUQ1gN4zR/jP0n8Y0g9FszdX+nuytwnYlF0X3TA4jvVZpi2ia6flpj9Lnau1PvWX9fCdmitZZfrfmYpbX0z7FQ9ULBpUndy77eTSMagC74Y3279Z/Gk83H0e9lR6f7K/CdRUXRfNIFp197aR1hM3XNUpvTsZR3SvX78RM0aowvjUbCrOf9io+Kl4wqGQ5umndaBCV8HVEFO3f2cNpLJ1snLXw2Enzdy2F66rsK5p/opjdz6663zFT+slmnXNb9Ko7MVO0zpK6NRezvEb2KT4qfjCojLhz0ZpoEJXwdcQa7d/Zw2ksnWzctVb5fLLHCtMVXBS97/JY2cfu+vmLyvyrpnhfmdHPDhW9s5RW9DmrdZd9io+KHwwquySkSGc0iEr4iloKHRPtP1T8h8WncXRxyaqzyuePfk71WmG6gomi91UuT+hhVT4VL1Zwz3qXRuvuyEvRPMrlc92NmYgymlmveKh4wqAy45a4J2q2YnBUamdt0V6i66O9R+v/tL7SY6funWut8vtUrxWe1UwUrd8zX6391Z1z9rNiWFH0d+Bf/Q7uyEvRHOV7YyaijGbXz/qoeLJ0UJlt+B3gCIjqs13nRXqcCWJUZ7aemR5m90R7nz2n4xcdVy871cFvr1sKz8p3RNHZ+e7u3JeivTI73hszX21HXormCKkb8xDho65VfJz1hkFFde3f/e8MUEx9kjZr+k91o3ozNDz1nfXzaO8uHScxdDGpqoPnPtIKy8o7oOj8SqtS86hLrt6q/6qi6O7ow6hfs+tmea1kNas5wmhlfxGdO69VfJz1h0HFlJhXBiiGjsqaNf5d/ahm9/mjfWesi/bu0nASQxeTqjp47iOtsKy6A4rG76SqNEcdcvVY2Z+iuVJn1Ius9bO8VrOa1T3CcXVvIxpPWKN4OOsRg4opOd8NUMyMSpo1/9U5Ud3Os6N9u9dHe3ecfxI/B4/qGis8r/5tdRVThWXVPVA0fuVYpXfWO0eflT0qeit1zvrh3jfLazWrWd1P/Fb39aTvpJ8rHs76xKBiStCnAYqJipTZAHw/M6rfda7Su2tvtHfHuSfxc/BYUQPfPdQVjlX3QNH4SalKq+rKTr0qWnfxQ/Xz6/5ZXqtZzer+id3qnpy+7lJr1sdZrxhUTMn4MGDWPJMEy3/2NNrDbPBcPbvqRPt2nXsKPxePFXVWeH+i7wrHCh6Kvt2GlA+9O/WraK3Izop36aczZ3l1YDWr/R2PDj11y0e2nlkPZ71iUDE52mFQ+WhlNgifGKIBVM8z4ZfLRPuWDzR45dBADc8XuhmOp9yd2bfjK7MKFo47XqFzJkvv9qg9V/Wr6KzS6PRFrTXLqwOrWe2vmHXoR/Vyx/2zHs76xaCyY0oeNM+GYea3cMpZndDPXjylh1PYKQw67F3hveOXCh3YfdWgcKy4C4q+Xf1Se67qW9FZkZ1Od+0EVkoP3724zf8OWZz1b9YrBpUOrps1zIaBQcVsROJAWav07NNmH12VinJP1bMz9iscs1ko2j5ZZWvM8GTmTV/xRVDxZ1dfZv0+gZXSw4p8znp16r5Z/2bvKoPKoUmaDUQ0gLPndMMe7duh/xR2DhYra6zwvuo31ZVcFY7Zd0HRtrtXau8V/Ssas7NTeYdGzjqFldIHw8pIUvLWzHo3e1cZVPK8XF55JhTRAM6csRzMCwHRvh09nMLOwWJljRXeV3z5q2aqcMy+C4q2E7zq3r+iLzs71ffo6bxTWCl9MKg8pST357Pezd5VBpVcP5dWnwlFNIAzZyyF8ubwaN+OHk5h52CxssYK70/48vvdM4Vj5l1QdJ3iU3cGir7M7Kx8l96dfRIrpReGlXXpnPVt9q4yqKzzuuTkaDCiAYzWL2l64pBo3xNH/LXlFHYOFqtr4L/ugMIw8y4ouhhUfuUi05+P+opH2dr0m+GtcBIrpZdXVG/LgjdZ49VmfZv1h0Fl3JstV0aDEQ1gtH5XiNG+HX2cws7BYnUN/NcdUBhm3gVFV8WXdJ38WAWFQ6Y/DCpj/n2u6uxjrJNfq5V+vp+XndOZ/k7cM+vZrD8MKiem6EtP0WBEAxit3xV3tG9HH6ewc7BYWWOF9yd9Ae7+BUr195R7qnDIZtBZ28q36dXZJ7JSemJYqU/orF+z7wiDSoHHP5kza/io7Ggwonqi9Ud1V6+L9u3Qdwo7B4uVNVZ4z6Dyp+OZd0H1N1NbZe47c1C0neLPaBZOZKX09IrbbZkYzY5r3axfs74wqLic+1YnYsis6aPSM7VEao/qXbEu2wMe0xWujp25wnsGlT0GlVPetw/aas4zWSjaMnWNvSC1q05lpfTF5+seGZy9qwwqCf7OmOG+pF/biuiJ6ojUTkBtKxnt23HwKewcLFbWWOE9gwqDSnXm1ZxnvleKtkxd1R6NnHcyK6W37+xuy8VIdlxrZn2a9YRBxeXclzqzZsya/9RCRE9UQ6T2k86VP4/27dB6CjsHi5U1VnjPoMKgUp15NeeZ75WiLVNXtUcj553OSumPYWUkQfqaWY9m7yqDiu7ZHxVmjfgsMhuAn9qIaIqeH6ltRm0tF+3bcfgp7BwsVtZY4T2DCoNKdebVnGe+V4q2TF3VHo2eN8trB1azvb1jt0PPo753WTfr0awXDCpG52dN+CphNgAMKpqRGdyfFDny8nQGP38msMJ7BhUGledkeleoOc98rxRtmbq8DviqzfLahdVsfwwrvoz9VGnWn9n8MagYfZ014buE2RA4Lmn0bFfPRhumSkX7njrk26ZT2DlYrKyxwnsGFQaV6syrOc98rxRtmbqqPRo9b5bXTqxme3R8Dxr14dZ1s97M5o9BxZS0WQNeHT8bAscFjZ7t7NtkxVSZaN9ThzCoOLDZa6zwnkFlj0HlJJ/UnGe+9Yq2TF32x8ZUcJbXbqxm+/wJ824MTJGxlVE8mWXPoGKyb9YABhWTAWIZ5fIpRztzo+i4eS/ee9xXOGbeA0UXg8rvbHT1KFOX52b4q8xmejdWs30yqPgz91lR8WQ2fwwqJj9nDWBQMRkgllEun3K0MzeKjpv34r3HfYVj5j1QdDGo/MpGpj8f9RWPsrV5boe3yiyvHVnN9tppWHnXw21+zPbLoGJ6P2YNYFAxGSCWyXgMRyQ5czNyHmv+JLDK94ovf9VeKywz74Gi6xSfOjPorK36Do2epzDLvGuj+qPrlH5XDiwR3bv4EunpO/vZHhlUojfmzfpZAxhUTAaIZZTLpxztzI2i49a9q3w/5Qvw19woLDPvgaLrFJ+6M1D0ZWan67t4Iy+l51XDSlTzDlmO9vTJXumNQcX0EikmfJcwG4R3rUS0Rc+O1DahTikT7dsp4hSGTiZVtfDdR1phmX0HFG0nDCvd+1f0ZWfHd0N8lW7lpfRdPawoWrtmelVPDCqmt8MZLCUMr9qJaIueHaltQp1SJtq3U8QpDJ1Mqmrhu4+0wjL7DijaGFT4/6j4bomnkpLn7Lvm6fB9FaX3J20uNk6NLk1PvY/8XOlL6YNBZcSdgTWKCfxFZQBw8hLlAqrSnNlRtdy0H8+9bis8s++Aou2TUrZGrxu/q6m9V/StaKzQl+WNUvdmZkrvI8zVTGXoUzWN9P20RulL0c+g8uTM4M8VExhUBiEnL1MuoSLNmR1Fx217V/n9wflEzxWeFTwUfbt6pvZc1beisyI7Hd/G25kp/Y/4OZurTF2zmkb6HVmj9KZoZ1AZcWdgjWICg8oA4IIlyiVU5Tnzo2q5ZT9+e51WeFbkX9G3619VdulZ0VmRHe9N8VSDmfaftR51IZIvxZNRPSvfotn+IgxfcWBQiabjzXrViK9lZ8PwrpWItujZkdom1Gllor07hZzE0cklq9ZKr6t+S53F7l1dhWlF/hV9K78czPq4U7+K1orszHqQuQ9mv+gqHKL+/JS1Sh0r3iOlP/WOMqhEk8qg8gcBNYAm/JYyykVUBZzEUWVRsX+l1wwqfztckX+X5xVaHXfA0W9Vr4rWKo0OT9w1ZrmdxGyWwawXr9hVa/iqvcpLpUdVI4PKbFq/7VON+FpOCcSrdiLaomdHaptQp5WJ9u4WchJLNxtnPXx20vxdS+FalX1F44ovB7NO7danorcqO7NeZO6Dm+f9yfQou3ZV/ldmjUHFlCJnWJRAMKjMG+rmPqPEmaOZ82/Ys9rnUz1WuFYxUTR+vxtVmqN30tVjZX+K5kqdUS+y18PtT8IKj2yvsupX5X+WrUMfg4opPQ4zPqXMBuJdKxFt0bMjtU2o08pEe88QchLPDD5qTTxWCb7fr7CtzL2is/tfVVy9ffS5iyeVOvNuz3zlWc9P5TbLY96BtTsrfFSYOvQxqJgy5jCDQcVkhlBGuZDCsX9sdWbJpemUOvib56TCtjLzis7Of1XZuS9Fe2V28m7PfGXY/c1OYTLvxJqdFflXeDr0MaiYsuUwg0HFZIZQRrmQwrEMKi54P9TB21zICl/n+znSpaK147Di7Kf6rykf5yn6q7Mzkq/KNbB7TVvhUumfelZ2/lWODn0MKmpK/t3vMINBxWSGUEa9lMLRDCsueC/q4Gsi3H9LK4yd7+dIp4rWd/Wre+jweTHCemSN4scq7iN9VaxR2K0YSiuYZN2NSu2jZ2XnX8mXSxuDymgaHta5DFF/u/RKZkRbNJSR2ibUqWWi/WeKOY1tJqun2l18PdlThfEKLoreLsOKu4cVPqifeas0P705lT9XcnADP4VPpY8zZ2X7p7BzaWNQmUnGiz0uQ9RHm0FFN1S5mPrpf1Zw5sqtbZd6+FnjlMJ5Rc4VvU9Es/vJ0p6t+x03pZ9Vmp8yUPlz+D3TVhg9V1+zIjv7KjOXPgYVU75chjComAwRyqiXUzj65VZnttzaOtfDx1p3FN6rMq5oHqHr7itTr1vrCJ/PNUpfK3VHesxcq/D70HULQ5VTpocztbN9U3g5tTGozKTjxR6nKUo4XrUT0RY9O1LbhLqkTJRDtqhTOWdx6+bfDV8GFOYr863ojuR3pscqbavzqfQ5wzXi2y5rYTjulMJq/JT8lZnZVxk5tTGomLLkNEUNyPeWItqiZ0dqm1CXlIlyqBB1Kms3u47erf4i6Gb8qp7CfXW2Fe2zbN/13EnLbG/RfUrPq7MT7TVrvcLwhvfJ/WZl+ThaNzv3Sp7c2hhURlPxsM5pjBKQVzIj2qJnR2qbUJeUiXIoEXXRn+hneeLbLDl9n8K+wzui6NfprauwO/sO+te59+fJSoZv5qhwW+V9tl8KE7c2BhVTypzGKAFhUDEZKv63/X0qXldy5i1ba0V9951xa77BL8WDDnwU/e68VNXrwP2jV4V9lx6qPPvpHIXjrX9V+cpT5VeVgezMqxzc+hhUTMlyGqOG5HtLEW3RsyO1TajLykRZlAn7ctDJ/Ed44tEIpZo1ihddcqz0UEN2DPaBAAAOUklEQVTZd0oX5gwqPk/V/HbKhI9KrJLKMHZafHW2R2r/GfoYVOI5ebnDaY4aFAYVj6luHzyqXldx5i9Tp7P2Lv7c4o3iRydGSh/OfGfW6sSbQcXrtJrfbtnw0olVU1nGTnteXeGN2nOGRgaV52wMrXCaowaFQWXIsqFFqhffc6HWexLtzOHTWSt+ns0vo6fTPflkpnjTjZHSS0aGnDW7sWZQcbqr/TO6DyUd8+ElNFdt9ZtQ4YvaY5ZGBpW5zP61y2mQGhYGFZOpyf922u3zq66dufRRHa9UwWhcTXzl7vwjHStedeWk9BRhV7X2RM5de6ry9NU5am5h+t49lW00F5VeqL1laWVQiabmzXqnQWpYGFRMpv5bRvHjKRdK7WiXH1o+znvSFK3rXl/JxK1duXvZWrLrK751zqTSVzbzSP1TGXfuK+KPc62aWZg+u6Eyfj6h9q9baj+ZmWFQGUnLwBqnSWpglC9L0bOdfQ9gXrIkymSGv3qGAmaVhyt7VniN7l3FdVSfe53iZ3dWSm9uztF63dl+9KPw3aG/qGeO9QrTj/PhGnNB5f152gruDu2ZuhlUYll8u9ppkiM0X4VGtEXPjtQ2oV5SJsplp2FllYcq0yVBCBy6imtAonWp4ucurJQerbAHi93AdZceBy2zLXNkFbbzdkT4r+Yc0fqKSLZ+BpX5HP6x02mUGpqZL8mfe6JnO/s2WZFSJsrlnYifeLnOiAJY5eGqfqN8ZtavYjqj1bVH8XMnXkqfLtZPdW7iuVOvT765f65mFbZuR/rVUzPy0VF2ThhUTLlxGuUIzte2ItqiZ0dqm1AvKxNlMzOsfOxxnTMCarV/lb2O8HCtWc3V1UekjuLljryUfiNcI2tv5LhjzxFPlbWOjMJXcaD33l3ywaBiypHzMjvCw6BiMvZLGacvXf6y4sztLHEn11kNzn0dmDr7Ga2l+rgrN7XvUb4/rduVneMXMzv37vD+qYaaT/g+Ed7352o2PjqvyAeDiiljTrMc4WFQMRn7rYzLm6e8uM7Z4ctNRa85aXhd9cnbSi2VZ6k+7s5N7X/Gq92ZMajMuB7bo+byhIzFiN2xWs1F1ZDycQ6DiimTzsvsCBCDisnYpEHl6ZK7M/CKhjOzKu2KflWNI/s7MR3R61yjengaO5XHO2/g9JvMaSyc9/GzlppDGGe4srammolP9VXZYFAx5cVpmCtEM2GKnu3s22RFepkoo58ErfonYN18czJND8APB3TjWs1C8fEGdhE+N/D4yGeEyfc838JIuccK36dfqCm62LuGgJqHme+VaqdLBxX1kVKBOQzLfChX6Iuemdm/Gu7M/VFO3YaVbr45eWb6PuvjKk3V5yo+dstkNbtbzyMzuc7DN5fvbtWVPKjfuWdZLR9UZoWzL4dANMS3frmIclK+4DrPWvXQPKU1o8enM50/v/UefGeo+ghHZyr3qKVkhrw8ewzfZ0a3rFCy8JVR9b1jULkloYN9RoNcHdjBNkqWRVm9EzXC0HVW10HlQ5e7x5IQ/HvIiIeVeladpXoIx1XOrTmXvORyV/hyF3O9qa6uZGHlkPJxNoNKdVqanxcN8+2PWZRXh2Glq2cultVXrCvPag6OYROWK1xbd6Zy58nKs2/wfWZ0wwolB6uHFAaVGxIa7DEa6Ns/LKK8lEHlc696ZlfP1L6CUbcs78rS0txkEdVHmE6C33CbkhVy8mw4fJ8Znb5CyUCHIYVB5fSETvQXDTUfFr5/shRlOepVtO5EbCxbRvuxHGYqsgtbU7tDZVQfYTqEeftF5CTXQoUvdzDXm6rqSga+a1yZCf7pV1ViNjknGuyV4e2ENMrtlfbbWToYVmbidr/esVZ9hGtlitecpWbkQzU5+dk7hTFs19wL56mK/52GFP6i4kzFIbWi4eZB+2V8lNu7uNzM08Ww4ire7NMTX4eP8H2ivPfP1YyQj2f/FcbwfebbeYXifbchhUGlc9IWaYsGnAftt1FRdvxV5U8CDn4V14bM5/0m97MyjCuSvO4M9a6Tj7w7CNt190I9Wb1XXb+T8E+/1GQctj8adB41/5ftW5lGs7fq6t3qT4S3w0s4R4jvs5Zs5HulMObe5fuTcYLi+Ts9XbLAoJKRmI1rRsPeJcidkEcZdv0tRjVTB7dszeR9jLDDS1iPsd5pFbnId0tlzL3L98h9gup59+8gKYOK2wTq9SXAo/baG8fDcRtbB7PMm3KbHypLh58wV13otZ9M5PuhMubO5XvkPEH1u/uQ8qGPQcWZmAtr8ai9N93xgNzE18Er6wre5IOLoctP2LscWVuHPNTwVzhz12o8cp2ieP1OQ8cMMKi4EnNpnY6h7mSF4yG5hbGDVYb3t/DPYOfyFA8y3KmrSQ72YM09q/NJOcl1n75r6Oo/g4qSlsv3dg11J1ucD8rpvJ2sXBk4nbmL07s6Tk/xItutnPpkIIfrq6oK6+z79akt+5w62vUnKf4+qe3sy9Cg8tFgJqAngPy8J4HOwe5ELOPunMg+g5OSgxMZKzxm9zp9xZNZF9bsw/ta7grvrLv1SlPWWbW0a09TvH1S2t0PBpUnB/n5SwLdg93RtqyH5icvdvqQyOIzkwXyPUPt9R63r3jj8yazEr5n0vXfNee9GvXeeWY97ZoTR1nOqtnBg+FBhb+qzMbgzH07hLsj+exHZ6Tnrt51YPPBryufEW+7rnF7i0ddnc751xf4/ey3csdUvsrZvLnvvVW5PqVG9f2pvuvnDCoukhfV2SXcXS3Jfnye+u7q32oufGA+JWf+51neds3yPKl9d2Z5zL0cy4TCf+YeKee962hGxxidfVZlcH3V/U6sQ4MKf1XZJ+yZSncKeCYHpXbVY7TTA7WSCV+GlDSP7c30lzdpzIOsVXibRXasrsp/9P6o54x1c+9fteH7OiHhQeWzTBXQ0WCzLp/A6GOWr+SME1bdoa4+wuOMXP/URbbHXbN9qrP42cNZxYenO6PUVuk8aVPrd9hfyXdXngwqHZK6iYZdQ94Zb+Uj9cmhq48rWPCXlNrbscLjrnmvJa+fVu0dvo17pnjzlbNSZ1zt3MqT8rCK864MpweVr1FbBX0u7uyKENg12JEeV6+tvj9dPYXD6iTWnF/t86uuVt2Bj95XnT3qbgd/+AXCqFu/1imefeZRqRFTq63ufn9+6m4V452ZffC0DCpa7NgNAQioHzYRgl0frapHvGv/EQ93X1vl9e6cbtXPHR13/ua7tENOVvuzA6OntDOoPBHi5xAoJFDxqHV9uG7uvTBibY6q8LtNswgZJtD1fRpuoHgh9+hP4Kvz08WP1Ryc14BBxUmTWhAwEch87Lo+YJk9f9jStW9TZLYsk+35llAuFs0djZvPHRpj5s5WZ+7uXscI561iUMljS2UISASyHsKuj9ht/UrhOGhzlu8HIbqila7vUmf43J3O7qzRduI9YlBZkyVOhcAwAfeHUdeH7JY+h42/bKHb/8vwbdtu1/doB6DcmR1cqtF48j1iUKnJEKdAQCbg+lDq+qC5+vsA3bVHOQQHF3D6fzCmo1rjnmp2cmc0fifsvuEOMaickFR6uIaA44Op68Pm6I0hZe+r4MrA3hTuUN/1HdqFPndlF6fydN5yhxhU8jJEZQikEpj9oOr6uM32w3CSGrMlxZUsLBHMocMEur4/ww00WbjLHfnq9y6am1j8VsZtd4hBpXsi0QeBBwLRx7/zIxfppXMfhNZDIJIHz4lUySTAnfXQ7XwvRjzurN/jkL/KCFf/qT0qMqj08AEVEJAJjD7+nR+8E3qQjaTAXwRGcwG6ngQ6vzk9if2squN9mPG4Yx8d8zDDtmMfs5oYVGbJsQ8CjQm8+gDY5bF79+G1i/7GsdhaGl9q9rOPO5vjWYe74PS2Qz85TmlVnYw1JWt3M6is5c/pEIAABCAQJMAXmyCw4uV8wcoFvir/Fb6u6i3XsfHqFYzH1fRYyaDSwwdUQAACEIBAkMDtX2qCuFKX8wUrFe//F6/O/Cpfq/usce/1KasYr+w5cjaDSoQWayEAAQhAoCWBm77YdDKAL1m1blTkvJunFT3XuvjrtG6cVzAYOZNBZYQSayAAAQhAYEsCp37JqTaDL1XVxF+fl5XnXfzN6r/C3V0YV7CInMGgEqHFWghAAAIQgAAEILCAgPNL+klfmp1cnLaexNjJJVqLQSVKjPUQgAAEIAABCECgmID6hfymL84qq6i1N7GNslHXM6ioBNkPAQhAAAIQgAAEEgkoX7z5Ev3LmA+GHyxmWcIxMeA/lGZQWcOdUyEAAQhAAAIQgMAQgciXa75QDyFl0SYEGFQ2MQqZEIAABCAAAQjcSeBpUGE4uTMXN3TNoHKDy/QIAQhAAAIQgMC2BN4NKgwo21qK8EECDCqDoFgGAQhAAAIQgAAEqgl8HVIYTKrpc95qAgwqqx3gfAhAAAIQgAAEIAABCEDgLwIMKoQCAhCAAAQgAAEIQAACEGhHgEGlnSUIggAEIAABCEAAAhCAAAQYVMgABCAAAQhAAAIQgAAEINCOAINKO0sQBAEIQAACEIAABCAAAQgwqJABCEAAAhCAAAQgAAEIQKAdAQaVdpYgCAIQgAAEIAABCEAAAhBgUCEDEIAABCAAAQhAAAIQgEA7Agwq7SxBEAQgAAEIQAACEIAABCDAoEIGIAABCEAAAhCAAAQgAIF2BBhU2lmCIAhAAAIQgAAEIAABCECAQYUMQAACEIAABCAAAQhAAALtCDCotLMEQRCAAAQgAAEIQAACEIAAgwoZgAAEIAABCEAAAhCAAATaEWBQaWcJgiAAAQhAAAIQgAAEIAABBhUyAAEIQAACEIAABCAAAQi0I8Cg0s4SBEEAAhCAAAQgAAEIQAACDCpkAAIQgAAEIAABCEAAAhBoR+D/AAVydlKYVDVIAAAAAElFTkSuQmCC;" parent="1" vertex="1">
          <mxGeometry x="1082" y="1779.8" width="138.86" height="37.38" as="geometry" />
        </mxCell>
        <mxCell id="jE6FvV27xrME2yMLQuQx-1" value="&lt;p style=&quot;line-height: 120%;&quot;&gt;&lt;font face=&quot;Courier New&quot;&gt;Celular&lt;/font&gt;&lt;/p&gt;" style="rounded=1;whiteSpace=wrap;arcSize=7;labelBackgroundColor=none;html=1;labelPosition=center;verticalLabelPosition=top;align=center;verticalAlign=bottom;fontColor=#000000;strokeColor=#000000;fillColor=#021138;gradientColor=#040414;gradientDirection=south;" parent="1" vertex="1">
          <mxGeometry x="1401" y="51" width="320" height="1790" as="geometry" />
        </mxCell>
        <mxCell id="jE6FvV27xrME2yMLQuQx-2" value="" style="rounded=1;whiteSpace=wrap;html=1;labelBackgroundColor=none;strokeColor=none;fontFamily=Courier New;fontSize=12;fontColor=#000000;fillColor=#080826;arcSize=35;" parent="1" vertex="1">
          <mxGeometry x="1401" y="1782" width="320" height="60" as="geometry" />
        </mxCell>
        <mxCell id="jE6FvV27xrME2yMLQuQx-3" value="" style="ellipse;whiteSpace=wrap;html=1;aspect=fixed;labelBackgroundColor=none;strokeColor=none;fontFamily=Courier New;fontSize=12;fontColor=#000000;fillColor=#B3B3B3;gradientColor=#021138;gradientDirection=west;" parent="1" vertex="1">
          <mxGeometry x="1521" y="111" width="190" height="190" as="geometry" />
        </mxCell>
        <mxCell id="jE6FvV27xrME2yMLQuQx-4" value="" style="shape=actor;whiteSpace=wrap;html=1;labelBackgroundColor=none;strokeColor=#021138;fontFamily=Courier New;fontSize=12;fontColor=#000000;fillColor=#B3B3B3;strokeWidth=2;" parent="1" vertex="1">
          <mxGeometry x="1558.19" y="135.38" width="115.62" height="141.25" as="geometry" />
        </mxCell>
        <mxCell id="jE6FvV27xrME2yMLQuQx-5" value="&lt;font&gt;Contact me&lt;/font&gt;" style="rounded=1;whiteSpace=wrap;html=1;labelBackgroundColor=none;strokeColor=none;fontFamily=Verdana;fontSize=12;fontColor=#021138;fillColor=#B3B3B3;arcSize=50;fontStyle=1" parent="1" vertex="1">
          <mxGeometry x="1601" y="72.5" width="80" height="20" as="geometry" />
        </mxCell>
        <mxCell id="jE6FvV27xrME2yMLQuQx-7" value="" style="html=1;verticalLabelPosition=bottom;align=center;labelBackgroundColor=#ffffff;verticalAlign=top;strokeWidth=2;strokeColor=none;shadow=0;dashed=0;shape=mxgraph.ios7.icons.pause;pointerEvents=1;fontFamily=Verdana;fontSize=12;fontColor=#FFFFFF;fillColor=#B3B3B3;rotation=90;" parent="1" vertex="1">
          <mxGeometry x="1432.5" y="72.5" width="15" height="27" as="geometry" />
        </mxCell>
        <mxCell id="jE6FvV27xrME2yMLQuQx-8" value="" style="html=1;verticalLabelPosition=bottom;align=center;labelBackgroundColor=#ffffff;verticalAlign=top;strokeWidth=2;strokeColor=none;shadow=0;dashed=0;shape=mxgraph.ios7.icons.pause;pointerEvents=1;fontFamily=Verdana;fontSize=12;fontColor=#FFFFFF;fillColor=#B3B3B3;rotation=90;" parent="1" vertex="1">
          <mxGeometry x="1432.5" y="72.5" width="15" height="27" as="geometry" />
        </mxCell>
        <mxCell id="jE6FvV27xrME2yMLQuQx-9" value="&lt;h1 style=&quot;font-size: 22px;&quot;&gt;Ultimos projetos&lt;/h1&gt;" style="text;html=1;strokeColor=none;fillColor=none;spacing=5;spacingTop=-20;whiteSpace=wrap;overflow=hidden;rounded=0;fontSize=22;fontFamily=Verdana;fontColor=#FFFFFF;" parent="1" vertex="1">
          <mxGeometry x="1464.25" y="988.48" width="220" height="40" as="geometry" />
        </mxCell>
        <mxCell id="jE6FvV27xrME2yMLQuQx-10" value="" style="html=1;verticalLabelPosition=bottom;align=center;labelBackgroundColor=#ffffff;verticalAlign=top;strokeWidth=2;strokeColor=#B3B3B3;shadow=0;dashed=0;shape=mxgraph.ios7.icons.documents;fontFamily=Verdana;fontSize=12;fontColor=#FFFFFF;fillColor=none;gradientColor=none;gradientDirection=north;" parent="1" vertex="1">
          <mxGeometry x="1432.5" y="990.13" width="32.5" height="30" as="geometry" />
        </mxCell>
        <mxCell id="jE6FvV27xrME2yMLQuQx-11" value="" style="rounded=1;whiteSpace=wrap;html=1;labelBackgroundColor=#FFFFFF;strokeColor=none;fontFamily=Verdana;fontSize=11;fontColor=#FFFFFF;fillColor=#B3B3B3;gradientColor=none;gradientDirection=east;arcSize=6;" parent="1" vertex="1">
          <mxGeometry x="1431" y="1060.88" width="248.5" height="160.12" as="geometry" />
        </mxCell>
        <mxCell id="jE6FvV27xrME2yMLQuQx-12" value="" style="html=1;verticalLabelPosition=bottom;align=center;labelBackgroundColor=#ffffff;verticalAlign=top;strokeWidth=2;strokeColor=#B3B3B3;shadow=0;dashed=0;shape=mxgraph.ios7.icons.folders;rounded=1;fontFamily=Verdana;fontSize=11;fontColor=#FFFFFF;fillColor=none;gradientColor=none;gradientDirection=east;" parent="1" vertex="1">
          <mxGeometry x="1447.75" y="1043" width="210" height="147.75" as="geometry" />
        </mxCell>
        <mxCell id="jE6FvV27xrME2yMLQuQx-13" value="" style="rounded=0;whiteSpace=wrap;html=1;labelBackgroundColor=none;strokeColor=none;fontFamily=Courier New;fontSize=12;fontColor=#000000;fillColor=#080826;" parent="1" vertex="1">
          <mxGeometry x="1401" y="1752" width="320" height="50" as="geometry" />
        </mxCell>
        <mxCell id="jE6FvV27xrME2yMLQuQx-14" value="&lt;h1&gt;&lt;font color=&quot;#ffffff&quot;&gt;Sobre mim:&lt;/font&gt;&lt;/h1&gt;&lt;p&gt;Lorem ipsum dolor sit amet, consectetur adipisicing elit, sed do eiusmod tempor incididunt ut labore et dolore magna aliqua.&lt;/p&gt;&lt;p&gt;Lorem ipsum dolor sit amet, consectetur adipisicing elit, sed do eiusmod tempor incididunt ut labore et dolore magna aliqua.&lt;/p&gt;" style="text;html=1;strokeColor=none;fillColor=none;spacing=5;spacingTop=-20;whiteSpace=wrap;overflow=hidden;rounded=0;fontSize=12;fontFamily=Verdana;fontColor=#B3B3B3;" parent="1" vertex="1">
          <mxGeometry x="1427.25" y="478" width="256" height="180" as="geometry" />
        </mxCell>
        <mxCell id="jE6FvV27xrME2yMLQuQx-15" value="Program" style="rounded=1;whiteSpace=wrap;html=1;labelBackgroundColor=none;strokeColor=none;strokeWidth=4;fontFamily=Courier New;fontSize=16;fontColor=#001224;fillColor=#B3B3B3;gradientColor=none;gradientDirection=east;fontStyle=1" parent="1" vertex="1">
          <mxGeometry x="1517.25" y="739.5" width="76" height="58" as="geometry" />
        </mxCell>
        <mxCell id="jE6FvV27xrME2yMLQuQx-16" value="&lt;font style=&quot;font-size: 16px;&quot;&gt;Dev&lt;/font&gt;" style="rounded=1;whiteSpace=wrap;html=1;labelBackgroundColor=none;strokeColor=#B3B3B3;strokeWidth=4;fontFamily=Courier New;fontSize=16;fontColor=#B3B3B3;fillColor=none;gradientColor=none;gradientDirection=east;fontStyle=1" parent="1" vertex="1">
          <mxGeometry x="1432.5" y="738" width="76" height="58" as="geometry" />
        </mxCell>
        <mxCell id="jE6FvV27xrME2yMLQuQx-17" value="&lt;font style=&quot;font-size: 16px;&quot;&gt;Backend&lt;/font&gt;" style="rounded=1;whiteSpace=wrap;html=1;labelBackgroundColor=none;strokeColor=none;strokeWidth=4;fontFamily=Courier New;fontSize=16;fontColor=#001224;fillColor=#B3B3B3;gradientColor=none;gradientDirection=east;fontStyle=1" parent="1" vertex="1">
          <mxGeometry x="1605" y="738" width="76" height="58" as="geometry" />
        </mxCell>
        <mxCell id="jE6FvV27xrME2yMLQuQx-18" value="&lt;h1&gt;&lt;font color=&quot;#ffffff&quot;&gt;Dev&lt;/font&gt;&lt;/h1&gt;&lt;p&gt;Lorem ipsum dolor sit amet, consectetur adipisicing elit, sed do eiusmod tempor incididunt ut labore et dolore magna aliqua.&lt;/p&gt;&lt;p&gt;Lorem ipsum dolor sit amet, consectetur adipisicing elit, sed do eiusmod tempor incididunt ut labore et dolore magna aliqua.&lt;br&gt;&lt;/p&gt;" style="text;html=1;strokeColor=none;fillColor=none;spacing=5;spacingTop=-20;whiteSpace=wrap;overflow=hidden;rounded=0;fontSize=12;fontFamily=Verdana;fontColor=#B3B3B3;" parent="1" vertex="1">
          <mxGeometry x="1427.25" y="831.58" width="257" height="117.42" as="geometry" />
        </mxCell>
        <mxCell id="jE6FvV27xrME2yMLQuQx-19" value="" style="html=1;verticalLabelPosition=bottom;align=center;labelBackgroundColor=#ffffff;verticalAlign=top;strokeWidth=2;strokeColor=#B3B3B3;shadow=0;dashed=0;shape=mxgraph.ios7.icons.tools;pointerEvents=1;rounded=1;fontFamily=Courier New;fontSize=18;fontColor=#001224;fillColor=none;gradientColor=none;gradientDirection=east;" parent="1" vertex="1">
          <mxGeometry x="1490.8" y="833" width="39.7" height="39.7" as="geometry" />
        </mxCell>
        <mxCell id="jE6FvV27xrME2yMLQuQx-22" value="Mensagem" style="rounded=1;whiteSpace=wrap;html=1;labelBackgroundColor=none;strokeColor=#B3B3B3;strokeWidth=4;fontFamily=Verdana;fontSize=13;fontColor=#B3B3B3;fillColor=none;gradientColor=none;gradientDirection=east;fontStyle=1;arcSize=5;labelPosition=center;verticalLabelPosition=middle;align=center;verticalAlign=middle;" parent="1" vertex="1">
          <mxGeometry x="1435.75" y="1550" width="248.5" height="140" as="geometry" />
        </mxCell>
        <mxCell id="jE6FvV27xrME2yMLQuQx-23" value="&lt;h1&gt;&lt;font color=&quot;#ffffff&quot;&gt;Entre em contato:&lt;/font&gt;&lt;/h1&gt;" style="text;html=1;strokeColor=none;fillColor=none;spacing=5;spacingTop=-20;whiteSpace=wrap;overflow=hidden;rounded=0;fontSize=12;fontFamily=Verdana;fontColor=#B3B3B3;" parent="1" vertex="1">
          <mxGeometry x="1441" y="1236.75" width="205" height="70" as="geometry" />
        </mxCell>
        <mxCell id="jE6FvV27xrME2yMLQuQx-24" value="" style="sketch=0;outlineConnect=0;fontColor=#232F3E;gradientColor=none;fillColor=#B3B3B3;strokeColor=none;dashed=0;verticalLabelPosition=bottom;verticalAlign=top;align=center;html=1;fontSize=12;fontStyle=0;aspect=fixed;pointerEvents=1;shape=mxgraph.aws4.email_2;rounded=1;labelBackgroundColor=none;strokeWidth=4;fontFamily=Courier New;gradientDirection=north;" parent="1" vertex="1">
          <mxGeometry x="1437.6" y="1329.57" width="46.5" height="29.21" as="geometry" />
        </mxCell>
        <mxCell id="jE6FvV27xrME2yMLQuQx-25" value="&lt;h1 style=&quot;font-size: 12px;&quot;&gt;&lt;font style=&quot;font-size: 12px;&quot;&gt;Email: pedroh.s.cravo@gmail.com&lt;/font&gt;&lt;/h1&gt;" style="text;html=1;strokeColor=none;fillColor=none;spacing=5;spacingTop=-20;whiteSpace=wrap;overflow=hidden;rounded=0;fontSize=12;fontFamily=Verdana;fontColor=#B3B3B3;align=left;" parent="1" vertex="1">
          <mxGeometry x="1488" y="1329.57" width="200" height="30" as="geometry" />
        </mxCell>
        <mxCell id="jE6FvV27xrME2yMLQuQx-26" value="" style="shape=mxgraph.signs.tech.telephone_3;html=1;pointerEvents=1;fillColor=#B3B3B3;strokeColor=none;verticalLabelPosition=bottom;verticalAlign=top;align=center;rounded=1;labelBackgroundColor=none;strokeWidth=4;fontFamily=Courier New;fontSize=12;fontColor=#B3B3B3;" parent="1" vertex="1">
          <mxGeometry x="1442.35" y="1376.75" width="37" height="40" as="geometry" />
        </mxCell>
        <mxCell id="jE6FvV27xrME2yMLQuQx-27" value="&lt;h1 style=&quot;font-size: 12px;&quot;&gt;Telefone: +55(27)99729563&lt;/h1&gt;" style="text;html=1;strokeColor=none;fillColor=none;spacing=5;spacingTop=-20;whiteSpace=wrap;overflow=hidden;rounded=0;fontSize=12;fontFamily=Verdana;fontColor=#B3B3B3;align=left;" parent="1" vertex="1">
          <mxGeometry x="1489.5" y="1381.75" width="200" height="30" as="geometry" />
        </mxCell>
        <mxCell id="jE6FvV27xrME2yMLQuQx-28" value="&lt;h1 style=&quot;font-size: 12px;&quot;&gt;Mande uma mensagem:&lt;/h1&gt;" style="text;html=1;strokeColor=none;fillColor=none;spacing=5;spacingTop=-20;whiteSpace=wrap;overflow=hidden;rounded=0;fontSize=12;fontFamily=Verdana;fontColor=#B3B3B3;align=left;" parent="1" vertex="1">
          <mxGeometry x="1461" y="1450" width="200" height="10" as="geometry" />
        </mxCell>
        <mxCell id="jE6FvV27xrME2yMLQuQx-29" value="Nome" style="rounded=1;whiteSpace=wrap;html=1;labelBackgroundColor=none;strokeColor=#B3B3B3;strokeWidth=4;fontFamily=Verdana;fontSize=12;fontColor=#B3B3B3;fillColor=none;gradientColor=none;gradientDirection=east;fontStyle=1;arcSize=9;" parent="1" vertex="1">
          <mxGeometry x="1433.65" y="1470" width="248.5" height="30.15" as="geometry" />
        </mxCell>
        <mxCell id="jE6FvV27xrME2yMLQuQx-30" value="Email" style="rounded=1;whiteSpace=wrap;html=1;labelBackgroundColor=none;strokeColor=#B3B3B3;strokeWidth=4;fontFamily=Verdana;fontSize=12;fontColor=#B3B3B3;fillColor=none;gradientColor=none;gradientDirection=east;fontStyle=1;arcSize=9;" parent="1" vertex="1">
          <mxGeometry x="1435.75" y="1510" width="248.5" height="30.15" as="geometry" />
        </mxCell>
        <mxCell id="jE6FvV27xrME2yMLQuQx-31" value="&lt;h1 style=&quot;font-size: 14px;&quot;&gt;Feito por Pedro Cravo&lt;/h1&gt;" style="text;html=1;strokeColor=none;fillColor=none;spacing=5;spacingTop=-20;whiteSpace=wrap;overflow=hidden;rounded=0;fontSize=14;fontFamily=Verdana;fontColor=#B3B3B3;align=left;" parent="1" vertex="1">
          <mxGeometry x="1460.75" y="1768.81" width="184" height="33.19" as="geometry" />
        </mxCell>
        <mxCell id="jE6FvV27xrME2yMLQuQx-32" value="" style="shape=image;verticalLabelPosition=bottom;labelBackgroundColor=default;verticalAlign=top;aspect=fixed;imageAspect=0;image=data:image/png,iVBORw0KGgoAAAANSUhEUgAAAyoAAADaCAYAAABJs7ZDAAAAAXNSR0IArs4c6QAAIABJREFUeF7tnOF2pCmORHsfcJ52HnD3+FR7y+XK9IeIkBBw569BhG4EZMqu6f/5h/9BAAIQgAAEIAABCEAAAhBoRuB/mulBDgQgAAEIQAACEIAABCAAgX8YVAgBBCAAAQhAAAIQgAAEINCOAINKO0sQBAEIQAACEIAABCAAAQgwqJABCEAAAhCAAAQgAAEIQKAdAQaVdpYgCAIQgAAEIAABCEAAAhBgUCEDEIAABCAAAQhAAAIQgEA7Agwq7SxBEAQgAAEIQAACEIAABCDAoEIGIAABCEAAAhCAAAQgAIF2BBhU2lmCIAhAAAIQgAAEIAABCECAQYUMQAACEIAABCAAAQhAAALtCDCotLMEQRCAAAQgAAEIQAACEIAAgwoZgAAEIAABCEAAAhCAAATaEWBQaWcJgiAAAQhAAAIQgAAEIAABBhUyAAEIQAACEIAABCAAAQi0I8Cg0s4SBEEAAhCAAAQgAAEIQAACDCpkAAIQgAAEIAABCEAAAhBoR4BBpZ0lCIIABCAAAQhAAAIQgAAEGFTIAAQgAAEIQAACEIAABCDQjgCDSjtLEAQBCEAAAhCAAAQgAAEIMKiQAQhAAAIQgAAEIAABCECgHQEGlXaWIAgCEIAABCAAAQhAQCHw3//+93+V/SN7//Of//A9egSUsAbAAjy2QgACEIAABCAAAQisI1AxkMx0xxAzQ+3vPQwqHo5UgQAEIAABCEAAAhBIJtB1MPmpbYaW+VAwqMyzYycEIAABCEAAAhCAQDKBHYeTd0gYWmJhYVCJ8WI1BCAAAQhAAAIQgEAygZOGE/7aMh8WBpV5duyEAAQgAAEIQAACEDARuGU44a8t44FhUBlnxUoIQAACEIAABCAAATOB2weU7zj552G/iTComC8b5SAAAQhAAAIQgAAEngkwoPzMiIHln38YVJ7vESsgAAEIQAACEIAABAwEGE7iEG8eWBhU4nlhBwQgAAEIQAACEIBAgAADSgDWm6U3DiwMKnpuqAABCEAAAhCAAAQg8IYAQ4o3GjcNLAwq3uxQDQLbE8j8QLnpcd0+CDQAAQhAQCSQ+XkiSjti+w2fqQwqR0SVJiAQJ9DpA+SGxzbuEDsgAAEI7Emg0+fLngRjqk/+DGVQiWWB1RDYmsAOHx4nP7hbhwfxEIAABAYI7PA5M9DGdktO/exkUNkuigiGwDiB3T8wTn14xx1kJQQgAIE9COzweeP4TOnep6PHToljUOnkBlogYCDQ/RFVWjztAVZYsPc9gZPvwGrfuYOrHeh3fqf7tjKfcMjJJoNKDleqQqCcQKdHMrv5lR9G2b1RP07gpuzH6eTu4C7m8u1evcPd65hBuPiSy6DiY0klCCwh0OFBXNL4P//80/EDahWLG8+9Ofvd/OYudnMkX8+q+7dj1lax+kjBjry+ppdBJf8ucwIE7ARWPnr2ZgwFd3+IDQiuKUH2+1vNfezvkaJwxR08LVPVDHfmx6Ci3Fb2QqCYQPXjVtye5bidH2QLgAOLkPt9TeU+7uvdK+XVd/H0/FTy3JUlg8pZbwjdHEqg8jE7AeGuD/IJ7N09kH030fp63Md65hknVt7F2zJTxXZHrgwqGbeZmhAwEqh6wIyS25Ta8VFuA2+xEHK/2ICE47mPCVCLSlbdx9szAue/Ay0PKlVQi+4ix7wgcPvDsSoU3C0feTLsY5ldidxnE15fn/u43oOIguw7SR7+diOb+ceJu3CfHlQqIEYuEmvzCewS6nwS+Sdwv/yMya+fqbsiuXcT7VuP+9jXm6/Ksu8kOfg5B/D/55+pQSUb3B7X906VPCq5vnO3cvmS31y+SnWyr9Dbcy/3sbdvmXcS72Pe3+xFeFDJhBWzjdWrCPDA5JDnbuVwfVWVDNexHjmJ7I9QOncN97Gft1l3Eq/nvc7y5ENRZ19Cg0ompHnr2LmCQOdQr+ChnMm9UujN7yXD8+xcO8m+i+T+dbiPfTzMupd47PH4Nn+GB5UsMB7bqFJNgAfHQ5x75eE4W4Ucz5Lz7CP/Ho6nVOE+rncy607irdfbm3xiUPFm56pqPDya3VkPjabqzt1kud538l/PvPuJ3MO1DmXcSTzN8zTDrw+13TwbGlSyYOTZR+UqAt0CXdW3eg53SiXo30+W/UzfVST/dax3PIm7WO9axp3ExxofT/eOQaUmR8eewkMUszbjQYkpYPVPBMhzfj5W3wE8HvN4pU94NOaRa1WG13jocmesjtvDTv4xqIxlgFVvCHQK8w4muR+THXreTSOZznOsKv94mOfhR+UKH/Ew18PP6m4v8a3Gt1ennOolg8q6TB1xMo/SmI3uB2TsVFbNEiDXs+Te78u+A3jm9+ypIp4+Eer9c7d/3MEefjt97eApg0qPXG2rokOIu8NzPhrdez1JH9n2upl5D/DK61W0Gt5GifVY7/SNO9jD04y/lK32NmVQWd1Ur7jspSb6cOH1z/5Gee6VlvPVkm+Px1n3AH88/riqZPiMxy53/qzj9AqPcjxSq57iMYOKmoTD9keDzQPFoHLYFfirHTKuORx9U0ZOw5MRSuvWuD3Hb6+XTn/wxuuNu5rL65U+M6i4U7F5vWioV4a3O+ooy+793KyPnM+7774HeDHvReVOp+947nMOX3wsd6nk8nzVPWRQ2SVpRTqjgV4V3CIc08dEOU4fxMYyAmQ9jtp9D/Ag7sHKHU7/8d7jpMsT/PD4UVHF5fmH1hW+M6hUpGSjM6KBXhHa7jijDLv3g77fBMh7LA2uuwD3GPduqx05IAO6qw4fVn1Z1bu/u4LL+xX+M6jcnd2/uo+GmQ+PPxFG+RG//QiQ+THPXHcB3mO8O68iC+vdwYP1HqxWsGsGGFRWJ6fZ+dEg8yXit4FRds2sR06AALl/huW6D7B+Zr3DCvKw1iUHf+7iWg8dpztyUP1XFQYVh/MH1YiGmIfrl/lRbgdF5spWyP3PtrvuA5zPul6OXJCJeCYc3Ku/nMa7ZMcoAUceKu8hg8qos5esiwa4MqxdLYgy69oHumIEyP57Xo47Ad9YHjNXf/dT8UbNhnJ2JqOutVXen33BvavDc7ocuajKBIPKnMfH7oqGtyqonYFHmXXuBW0xAuT/b16u+wDbWBadqyMeRn2K1H7XU/RMJ5vdasF7N8dq9DpyUfVXttaDyiuQPFC5IY6G93Y/orxy3aP6CgK334HvzB13AqYrkvzrzBn/on7NnPGVSPS8dTTXnqxyrvoiupbSvafvko+Wg8ooPB4r/wUbZf958s0eRFlF3fqJbfbZUa2r169kdfMdeOW7I5swXXejZv2LeDZ7Bp87sVyonBlUYrx3XL1DRloNKrPAIg/kjkGq1Bz14Gb2UVZRH0fZZuuI6q5aP8pn9rfEkT4iWiJ1d1yr5hGW61yv9K7yrHVE152s8mVIWedd9clqVrLf7DaDSndQ1cFZdV7Uh+yAruLwdG6U01O97z+f4ZqtKdpD5voon2w2UT2ZbFbXVlnDco2Dqm/Rv3ao55GTn3OyM98n7XjvfSOeeI+clulJi0GlO6QRk05ZE/UiM5ydmUY5RXtRuGZri/biXD/LpYLJrDYnn9W1HJzhuMZFh3fR38IrZ5KT9zlRuEYHTmdaI7rx30l+7v+b9lVBph/HDCrRB9Jr8TnVIg/FrcyjjGbS4bj0FTpneovu2YmFQ2uUT6f1auZu57fKS9W32S8syrlkJW9QqWY7m4NqnavuZ9W5sz5kD7fLBxUVzHcDCa4W6agft/GO8pl1w8XVrfdJV/V5o3zdut6d+8RnVO+u61TOt/Nb5bvq24pB5dZflD1lRPWy+g4qequ1PrHf/eeKF5n3cemgokJ5FQqCq12VqCe38Y7ymXEjg2lEd8b5nxxW6oicPeNb9m+VFE1VexXGmbmr6n/XcxTf1F8WKmeTmb8Tp/DM/LL56m6oWqv17nq/I7pVTzLuJINKxMEL1kZDmhHKrpijbGb7yGT6tYfMc6K9V+g6wb8o1+r1CuNOeczm9hOnFRwU3xhUstMyXt/hY1X+HFoZVMazMbpS9SUjPwwqo+5dsi4a0oxQdkUdZTPbx01MZxnN7Kvy7+YPT4XxiblXeLzKeBYjp86oRuXs6Fkz78ZOexSWle+WqvOrJ2TAn1DVH7cnxw0qlZfNH4/1FaMBdQdyPYHXCqJclD5uYaowmtmLhzPUxveofE/IvcpgnPavlS5mTt1RTcrZ0bOifHdbvwtLRWflAL+b/y69qj/ue8mg4nL2kDrRgLoD2RVjlIvSxy1MFUYzeys9dH6JnOl1xR6V7865V3tX/XKwc/UQ1aKeGz1PZd11/y4cVZ0MKjUJVHxy30kGlRrPtzklGk53IDuCijJRe7iBqcpoZj8+zlAb36Py3TH3as/jdMdWqgzVfmbOX3HmGM29VikcZ3yboaNofDqvqocnHaf8XPXK6cdxg4oTzimBi/QRDecNvKNMIrz57ZBKa3x/tY+3/VVF4bvTO6L0OZ5WbeUsT6W3FWfedsfepULxrZKhqvOnWzGbP+2mnb1b8cvpB4PK2TkLdxcNpjOMYbEFG6I8HJJOZ+pgNFMDL2eoje9R+O6SeaXHcZK+lTNcZ3ucOeuz09kzK79k+1zxV1L4VTJUdT6RUzL4VPvGn6t+ufxYOqh8GK+C+BoeF5QbAzn7gXE6c2c+R3N1OtNRDu51K7ys/BLg5hWtp/DdIfNKf1GWzvUzbCO9ztT/3l/kvO97Hec7ea+otQM/ReMoU7IwSmpsneqZy4/lg4pzWHFBGbPwzFXRYJ7MPMrClYiTmboYzdTBzxlq43sUvp0zr/Q1Ti935Szfn3qfrfmqU4WxU0euCznVFXaVv0hRdY7Quz0LI4yiaxTfXH4cM6i4gERNPG19NJQnc4+ycGXhZKYuRjN18HOG2vgehW/XzCs9jZOrW3ki5649VbmqZLSSnaIzwrKyp4iuXdcqvrm8aDGoOP6q4gKya5hcuqOhPJl7lIXLg8rfcjk1d6610stb/FQYd3xHlH4634XTWHfsp9J/JaeV7BSdEZ6VPUV07bxW8c7hR5tBZXZYcUDYOUBu7dFAnso/ysHtw6lc3ZxG6+HnKKn5dQrjbnlXepknWLfzJN7deqlz8ddJs1mt5DarcZZlZW+zGnfap/jn8KLVoPJp3CgUB4CdwlKhdZT9p5ZTPYhycHtzKlc3p9F6q/284a8qCuNOeVf6GM1jh3WnMO/UR7WvSlYruSk6Z5hW9jajb7c9in8OL1oOKk8Di6Px3YJSpTcayFO9iHJw+3MqVzen0Xqr/WRQ+dmpLnnvkJPRTDvWncC9Sw8OP6I1lLxWclN0Rpnc8NbOMFH3zHroyFnrQUUFy/44gWgYHSGMq8zdEWWQoeZErhmcRmvi6Sip+XUK4w55V/TPU1u/c3f2HfSvclHJbCU3Recs28r+ZjXutE/xUPWCQWWnpBRojYZRDWBBS+EjogzCBzxsOJGpm9FMvdW+nv6bPoXv6swr2mey+HXPZ++rNKxm/8FC6b2DfjUDs/tnuVUzm9U5y+X0t1bhMrtX8VDNG4PKrGuH7ouGUQ1gN4zR/jP0n8Y0g9FszdX+nuytwnYlF0X3TA4jvVZpi2ia6flpj9Lnau1PvWX9fCdmitZZfrfmYpbX0z7FQ9ULBpUndy77eTSMagC74Y3279Z/Gk83H0e9lR6f7K/CdRUXRfNIFp197aR1hM3XNUpvTsZR3SvX78RM0aowvjUbCrOf9io+Kl4wqGQ5umndaBCV8HVEFO3f2cNpLJ1snLXw2Enzdy2F66rsK5p/opjdz6663zFT+slmnXNb9Ko7MVO0zpK6NRezvEb2KT4qfjCojLhz0ZpoEJXwdcQa7d/Zw2ksnWzctVb5fLLHCtMVXBS97/JY2cfu+vmLyvyrpnhfmdHPDhW9s5RW9DmrdZd9io+KHwwquySkSGc0iEr4iloKHRPtP1T8h8WncXRxyaqzyuePfk71WmG6gomi91UuT+hhVT4VL1Zwz3qXRuvuyEvRPMrlc92NmYgymlmveKh4wqAy45a4J2q2YnBUamdt0V6i66O9R+v/tL7SY6funWut8vtUrxWe1UwUrd8zX6391Z1z9rNiWFH0d+Bf/Q7uyEvRHOV7YyaijGbXz/qoeLJ0UJlt+B3gCIjqs13nRXqcCWJUZ7aemR5m90R7nz2n4xcdVy871cFvr1sKz8p3RNHZ+e7u3JeivTI73hszX21HXormCKkb8xDho65VfJz1hkFFde3f/e8MUEx9kjZr+k91o3ozNDz1nfXzaO8uHScxdDGpqoPnPtIKy8o7oOj8SqtS86hLrt6q/6qi6O7ow6hfs+tmea1kNas5wmhlfxGdO69VfJz1h0HFlJhXBiiGjsqaNf5d/ahm9/mjfWesi/bu0nASQxeTqjp47iOtsKy6A4rG76SqNEcdcvVY2Z+iuVJn1Ius9bO8VrOa1T3CcXVvIxpPWKN4OOsRg4opOd8NUMyMSpo1/9U5Ud3Os6N9u9dHe3ecfxI/B4/qGis8r/5tdRVThWXVPVA0fuVYpXfWO0eflT0qeit1zvrh3jfLazWrWd1P/Fb39aTvpJ8rHs76xKBiStCnAYqJipTZAHw/M6rfda7Su2tvtHfHuSfxc/BYUQPfPdQVjlX3QNH4SalKq+rKTr0qWnfxQ/Xz6/5ZXqtZzer+id3qnpy+7lJr1sdZrxhUTMn4MGDWPJMEy3/2NNrDbPBcPbvqRPt2nXsKPxePFXVWeH+i7wrHCh6Kvt2GlA+9O/WraK3Izop36aczZ3l1YDWr/R2PDj11y0e2nlkPZ71iUDE52mFQ+WhlNgifGKIBVM8z4ZfLRPuWDzR45dBADc8XuhmOp9yd2bfjK7MKFo47XqFzJkvv9qg9V/Wr6KzS6PRFrTXLqwOrWe2vmHXoR/Vyx/2zHs76xaCyY0oeNM+GYea3cMpZndDPXjylh1PYKQw67F3hveOXCh3YfdWgcKy4C4q+Xf1Se67qW9FZkZ1Od+0EVkoP3724zf8OWZz1b9YrBpUOrps1zIaBQcVsROJAWav07NNmH12VinJP1bMz9iscs1ko2j5ZZWvM8GTmTV/xRVDxZ1dfZv0+gZXSw4p8znp16r5Z/2bvKoPKoUmaDUQ0gLPndMMe7duh/xR2DhYra6zwvuo31ZVcFY7Zd0HRtrtXau8V/Ssas7NTeYdGzjqFldIHw8pIUvLWzHo3e1cZVPK8XF55JhTRAM6csRzMCwHRvh09nMLOwWJljRXeV3z5q2aqcMy+C4q2E7zq3r+iLzs71ffo6bxTWCl9MKg8pST357Pezd5VBpVcP5dWnwlFNIAzZyyF8ubwaN+OHk5h52CxssYK70/48vvdM4Vj5l1QdJ3iU3cGir7M7Kx8l96dfRIrpReGlXXpnPVt9q4yqKzzuuTkaDCiAYzWL2l64pBo3xNH/LXlFHYOFqtr4L/ugMIw8y4ouhhUfuUi05+P+opH2dr0m+GtcBIrpZdXVG/LgjdZ49VmfZv1h0Fl3JstV0aDEQ1gtH5XiNG+HX2cws7BYnUN/NcdUBhm3gVFV8WXdJ38WAWFQ6Y/DCpj/n2u6uxjrJNfq5V+vp+XndOZ/k7cM+vZrD8MKiem6EtP0WBEAxit3xV3tG9HH6ewc7BYWWOF9yd9Ae7+BUr195R7qnDIZtBZ28q36dXZJ7JSemJYqU/orF+z7wiDSoHHP5kza/io7Ggwonqi9Ud1V6+L9u3Qdwo7B4uVNVZ4z6Dyp+OZd0H1N1NbZe47c1C0neLPaBZOZKX09IrbbZkYzY5r3axfs74wqLic+1YnYsis6aPSM7VEao/qXbEu2wMe0xWujp25wnsGlT0GlVPetw/aas4zWSjaMnWNvSC1q05lpfTF5+seGZy9qwwqCf7OmOG+pF/biuiJ6ojUTkBtKxnt23HwKewcLFbWWOE9gwqDSnXm1ZxnvleKtkxd1R6NnHcyK6W37+xuy8VIdlxrZn2a9YRBxeXclzqzZsya/9RCRE9UQ6T2k86VP4/27dB6CjsHi5U1VnjPoMKgUp15NeeZ75WiLVNXtUcj553OSumPYWUkQfqaWY9m7yqDiu7ZHxVmjfgsMhuAn9qIaIqeH6ltRm0tF+3bcfgp7BwsVtZY4T2DCoNKdebVnGe+V4q2TF3VHo2eN8trB1azvb1jt0PPo753WTfr0awXDCpG52dN+CphNgAMKpqRGdyfFDny8nQGP38msMJ7BhUGledkeleoOc98rxRtmbq8DviqzfLahdVsfwwrvoz9VGnWn9n8MagYfZ014buE2RA4Lmn0bFfPRhumSkX7njrk26ZT2DlYrKyxwnsGFQaV6syrOc98rxRtmbqqPRo9b5bXTqxme3R8Dxr14dZ1s97M5o9BxZS0WQNeHT8bAscFjZ7t7NtkxVSZaN9ThzCoOLDZa6zwnkFlj0HlJJ/UnGe+9Yq2TF32x8ZUcJbXbqxm+/wJ824MTJGxlVE8mWXPoGKyb9YABhWTAWIZ5fIpRztzo+i4eS/ee9xXOGbeA0UXg8rvbHT1KFOX52b4q8xmejdWs30yqPgz91lR8WQ2fwwqJj9nDWBQMRkgllEun3K0MzeKjpv34r3HfYVj5j1QdDGo/MpGpj8f9RWPsrV5boe3yiyvHVnN9tppWHnXw21+zPbLoGJ6P2YNYFAxGSCWyXgMRyQ5czNyHmv+JLDK94ovf9VeKywz74Gi6xSfOjPorK36Do2epzDLvGuj+qPrlH5XDiwR3bv4EunpO/vZHhlUojfmzfpZAxhUTAaIZZTLpxztzI2i49a9q3w/5Qvw19woLDPvgaLrFJ+6M1D0ZWan67t4Iy+l51XDSlTzDlmO9vTJXumNQcX0EikmfJcwG4R3rUS0Rc+O1DahTikT7dsp4hSGTiZVtfDdR1phmX0HFG0nDCvd+1f0ZWfHd0N8lW7lpfRdPawoWrtmelVPDCqmt8MZLCUMr9qJaIueHaltQp1SJtq3U8QpDJ1Mqmrhu4+0wjL7DijaGFT4/6j4bomnkpLn7Lvm6fB9FaX3J20uNk6NLk1PvY/8XOlL6YNBZcSdgTWKCfxFZQBw8hLlAqrSnNlRtdy0H8+9bis8s++Aou2TUrZGrxu/q6m9V/StaKzQl+WNUvdmZkrvI8zVTGXoUzWN9P20RulL0c+g8uTM4M8VExhUBiEnL1MuoSLNmR1Fx217V/n9wflEzxWeFTwUfbt6pvZc1beisyI7Hd/G25kp/Y/4OZurTF2zmkb6HVmj9KZoZ1AZcWdgjWICg8oA4IIlyiVU5Tnzo2q5ZT9+e51WeFbkX9G3619VdulZ0VmRHe9N8VSDmfaftR51IZIvxZNRPSvfotn+IgxfcWBQiabjzXrViK9lZ8PwrpWItujZkdom1Gllor07hZzE0cklq9ZKr6t+S53F7l1dhWlF/hV9K78czPq4U7+K1orszHqQuQ9mv+gqHKL+/JS1Sh0r3iOlP/WOMqhEk8qg8gcBNYAm/JYyykVUBZzEUWVRsX+l1wwqfztckX+X5xVaHXfA0W9Vr4rWKo0OT9w1ZrmdxGyWwawXr9hVa/iqvcpLpUdVI4PKbFq/7VON+FpOCcSrdiLaomdHaptQp5WJ9u4WchJLNxtnPXx20vxdS+FalX1F44ovB7NO7danorcqO7NeZO6Dm+f9yfQou3ZV/ldmjUHFlCJnWJRAMKjMG+rmPqPEmaOZ82/Ys9rnUz1WuFYxUTR+vxtVmqN30tVjZX+K5kqdUS+y18PtT8IKj2yvsupX5X+WrUMfg4opPQ4zPqXMBuJdKxFt0bMjtU2o08pEe88QchLPDD5qTTxWCb7fr7CtzL2is/tfVVy9ffS5iyeVOvNuz3zlWc9P5TbLY96BtTsrfFSYOvQxqJgy5jCDQcVkhlBGuZDCsX9sdWbJpemUOvib56TCtjLzis7Of1XZuS9Fe2V28m7PfGXY/c1OYTLvxJqdFflXeDr0MaiYsuUwg0HFZIZQRrmQwrEMKi54P9TB21zICl/n+znSpaK147Di7Kf6rykf5yn6q7Mzkq/KNbB7TVvhUumfelZ2/lWODn0MKmpK/t3vMINBxWSGUEa9lMLRDCsueC/q4Gsi3H9LK4yd7+dIp4rWd/Wre+jweTHCemSN4scq7iN9VaxR2K0YSiuYZN2NSu2jZ2XnX8mXSxuDymgaHta5DFF/u/RKZkRbNJSR2ibUqWWi/WeKOY1tJqun2l18PdlThfEKLoreLsOKu4cVPqifeas0P705lT9XcnADP4VPpY8zZ2X7p7BzaWNQmUnGiz0uQ9RHm0FFN1S5mPrpf1Zw5sqtbZd6+FnjlMJ5Rc4VvU9Es/vJ0p6t+x03pZ9Vmp8yUPlz+D3TVhg9V1+zIjv7KjOXPgYVU75chjComAwRyqiXUzj65VZnttzaOtfDx1p3FN6rMq5oHqHr7itTr1vrCJ/PNUpfK3VHesxcq/D70HULQ5VTpocztbN9U3g5tTGozKTjxR6nKUo4XrUT0RY9O1LbhLqkTJRDtqhTOWdx6+bfDV8GFOYr863ojuR3pscqbavzqfQ5wzXi2y5rYTjulMJq/JT8lZnZVxk5tTGomLLkNEUNyPeWItqiZ0dqm1CXlIlyqBB1Kms3u47erf4i6Gb8qp7CfXW2Fe2zbN/13EnLbG/RfUrPq7MT7TVrvcLwhvfJ/WZl+ThaNzv3Sp7c2hhURlPxsM5pjBKQVzIj2qJnR2qbUJeUiXIoEXXRn+hneeLbLDl9n8K+wzui6NfprauwO/sO+te59+fJSoZv5qhwW+V9tl8KE7c2BhVTypzGKAFhUDEZKv63/X0qXldy5i1ba0V9951xa77BL8WDDnwU/e68VNXrwP2jV4V9lx6qPPvpHIXjrX9V+cpT5VeVgezMqxzc+hhUTMlyGqOG5HtLEW3RsyO1TajLykRZlAn7ctDJ/Ed44tEIpZo1ihddcqz0UEN2DPaBAAAOUklEQVTZd0oX5gwqPk/V/HbKhI9KrJLKMHZafHW2R2r/GfoYVOI5ebnDaY4aFAYVj6luHzyqXldx5i9Tp7P2Lv7c4o3iRydGSh/OfGfW6sSbQcXrtJrfbtnw0olVU1nGTnteXeGN2nOGRgaV52wMrXCaowaFQWXIsqFFqhffc6HWexLtzOHTWSt+ns0vo6fTPflkpnjTjZHSS0aGnDW7sWZQcbqr/TO6DyUd8+ElNFdt9ZtQ4YvaY5ZGBpW5zP61y2mQGhYGFZOpyf922u3zq66dufRRHa9UwWhcTXzl7vwjHStedeWk9BRhV7X2RM5de6ry9NU5am5h+t49lW00F5VeqL1laWVQiabmzXqnQWpYGFRMpv5bRvHjKRdK7WiXH1o+znvSFK3rXl/JxK1duXvZWrLrK751zqTSVzbzSP1TGXfuK+KPc62aWZg+u6Eyfj6h9q9baj+ZmWFQGUnLwBqnSWpglC9L0bOdfQ9gXrIkymSGv3qGAmaVhyt7VniN7l3FdVSfe53iZ3dWSm9uztF63dl+9KPw3aG/qGeO9QrTj/PhGnNB5f152gruDu2ZuhlUYll8u9ppkiM0X4VGtEXPjtQ2oV5SJsplp2FllYcq0yVBCBy6imtAonWp4ucurJQerbAHi93AdZceBy2zLXNkFbbzdkT4r+Yc0fqKSLZ+BpX5HP6x02mUGpqZL8mfe6JnO/s2WZFSJsrlnYifeLnOiAJY5eGqfqN8ZtavYjqj1bVH8XMnXkqfLtZPdW7iuVOvT765f65mFbZuR/rVUzPy0VF2ThhUTLlxGuUIzte2ItqiZ0dqm1AvKxNlMzOsfOxxnTMCarV/lb2O8HCtWc3V1UekjuLljryUfiNcI2tv5LhjzxFPlbWOjMJXcaD33l3ywaBiypHzMjvCw6BiMvZLGacvXf6y4sztLHEn11kNzn0dmDr7Ga2l+rgrN7XvUb4/rduVneMXMzv37vD+qYaaT/g+Ed7352o2PjqvyAeDiiljTrMc4WFQMRn7rYzLm6e8uM7Z4ctNRa85aXhd9cnbSi2VZ6k+7s5N7X/Gq92ZMajMuB7bo+byhIzFiN2xWs1F1ZDycQ6DiimTzsvsCBCDisnYpEHl6ZK7M/CKhjOzKu2KflWNI/s7MR3R61yjengaO5XHO2/g9JvMaSyc9/GzlppDGGe4srammolP9VXZYFAx5cVpmCtEM2GKnu3s22RFepkoo58ErfonYN18czJND8APB3TjWs1C8fEGdhE+N/D4yGeEyfc838JIuccK36dfqCm62LuGgJqHme+VaqdLBxX1kVKBOQzLfChX6Iuemdm/Gu7M/VFO3YaVbr45eWb6PuvjKk3V5yo+dstkNbtbzyMzuc7DN5fvbtWVPKjfuWdZLR9UZoWzL4dANMS3frmIclK+4DrPWvXQPKU1o8enM50/v/UefGeo+ghHZyr3qKVkhrw8ewzfZ0a3rFCy8JVR9b1jULkloYN9RoNcHdjBNkqWRVm9EzXC0HVW10HlQ5e7x5IQ/HvIiIeVeladpXoIx1XOrTmXvORyV/hyF3O9qa6uZGHlkPJxNoNKdVqanxcN8+2PWZRXh2Glq2cultVXrCvPag6OYROWK1xbd6Zy58nKs2/wfWZ0wwolB6uHFAaVGxIa7DEa6Ns/LKK8lEHlc696ZlfP1L6CUbcs78rS0txkEdVHmE6C33CbkhVy8mw4fJ8Znb5CyUCHIYVB5fSETvQXDTUfFr5/shRlOepVtO5EbCxbRvuxHGYqsgtbU7tDZVQfYTqEeftF5CTXQoUvdzDXm6rqSga+a1yZCf7pV1ViNjknGuyV4e2ENMrtlfbbWToYVmbidr/esVZ9hGtlitecpWbkQzU5+dk7hTFs19wL56mK/52GFP6i4kzFIbWi4eZB+2V8lNu7uNzM08Ww4ire7NMTX4eP8H2ivPfP1YyQj2f/FcbwfebbeYXifbchhUGlc9IWaYsGnAftt1FRdvxV5U8CDn4V14bM5/0m97MyjCuSvO4M9a6Tj7w7CNt190I9Wb1XXb+T8E+/1GQctj8adB41/5ftW5lGs7fq6t3qT4S3w0s4R4jvs5Zs5HulMObe5fuTcYLi+Ts9XbLAoJKRmI1rRsPeJcidkEcZdv0tRjVTB7dszeR9jLDDS1iPsd5pFbnId0tlzL3L98h9gup59+8gKYOK2wTq9SXAo/baG8fDcRtbB7PMm3KbHypLh58wV13otZ9M5PuhMubO5XvkPEH1u/uQ8qGPQcWZmAtr8ai9N93xgNzE18Er6wre5IOLoctP2LscWVuHPNTwVzhz12o8cp2ieP1OQ8cMMKi4EnNpnY6h7mSF4yG5hbGDVYb3t/DPYOfyFA8y3KmrSQ72YM09q/NJOcl1n75r6Oo/g4qSlsv3dg11J1ucD8rpvJ2sXBk4nbmL07s6Tk/xItutnPpkIIfrq6oK6+z79akt+5w62vUnKf4+qe3sy9Cg8tFgJqAngPy8J4HOwe5ELOPunMg+g5OSgxMZKzxm9zp9xZNZF9bsw/ta7grvrLv1SlPWWbW0a09TvH1S2t0PBpUnB/n5SwLdg93RtqyH5icvdvqQyOIzkwXyPUPt9R63r3jj8yazEr5n0vXfNee9GvXeeWY97ZoTR1nOqtnBg+FBhb+qzMbgzH07hLsj+exHZ6Tnrt51YPPBryufEW+7rnF7i0ddnc751xf4/ey3csdUvsrZvLnvvVW5PqVG9f2pvuvnDCoukhfV2SXcXS3Jfnye+u7q32oufGA+JWf+51neds3yPKl9d2Z5zL0cy4TCf+YeKee962hGxxidfVZlcH3V/U6sQ4MKf1XZJ+yZSncKeCYHpXbVY7TTA7WSCV+GlDSP7c30lzdpzIOsVXibRXasrsp/9P6o54x1c+9fteH7OiHhQeWzTBXQ0WCzLp/A6GOWr+SME1bdoa4+wuOMXP/URbbHXbN9qrP42cNZxYenO6PUVuk8aVPrd9hfyXdXngwqHZK6iYZdQ94Zb+Uj9cmhq48rWPCXlNrbscLjrnmvJa+fVu0dvo17pnjzlbNSZ1zt3MqT8rCK864MpweVr1FbBX0u7uyKENg12JEeV6+tvj9dPYXD6iTWnF/t86uuVt2Bj95XnT3qbgd/+AXCqFu/1imefeZRqRFTq63ufn9+6m4V452ZffC0DCpa7NgNAQioHzYRgl0frapHvGv/EQ93X1vl9e6cbtXPHR13/ua7tENOVvuzA6OntDOoPBHi5xAoJFDxqHV9uG7uvTBibY6q8LtNswgZJtD1fRpuoHgh9+hP4Kvz08WP1Ryc14BBxUmTWhAwEch87Lo+YJk9f9jStW9TZLYsk+35llAuFs0djZvPHRpj5s5WZ+7uXscI561iUMljS2UISASyHsKuj9ht/UrhOGhzlu8HIbqila7vUmf43J3O7qzRduI9YlBZkyVOhcAwAfeHUdeH7JY+h42/bKHb/8vwbdtu1/doB6DcmR1cqtF48j1iUKnJEKdAQCbg+lDq+qC5+vsA3bVHOQQHF3D6fzCmo1rjnmp2cmc0fifsvuEOMaickFR6uIaA44Op68Pm6I0hZe+r4MrA3hTuUN/1HdqFPndlF6fydN5yhxhU8jJEZQikEpj9oOr6uM32w3CSGrMlxZUsLBHMocMEur4/ww00WbjLHfnq9y6am1j8VsZtd4hBpXsi0QeBBwLRx7/zIxfppXMfhNZDIJIHz4lUySTAnfXQ7XwvRjzurN/jkL/KCFf/qT0qMqj08AEVEJAJjD7+nR+8E3qQjaTAXwRGcwG6ngQ6vzk9if2squN9mPG4Yx8d8zDDtmMfs5oYVGbJsQ8CjQm8+gDY5bF79+G1i/7GsdhaGl9q9rOPO5vjWYe74PS2Qz85TmlVnYw1JWt3M6is5c/pEIAABCAQJMAXmyCw4uV8wcoFvir/Fb6u6i3XsfHqFYzH1fRYyaDSwwdUQAACEIBAkMDtX2qCuFKX8wUrFe//F6/O/Cpfq/usce/1KasYr+w5cjaDSoQWayEAAQhAoCWBm77YdDKAL1m1blTkvJunFT3XuvjrtG6cVzAYOZNBZYQSayAAAQhAYEsCp37JqTaDL1XVxF+fl5XnXfzN6r/C3V0YV7CInMGgEqHFWghAAAIQgAAEILCAgPNL+klfmp1cnLaexNjJJVqLQSVKjPUQgAAEIAABCECgmID6hfymL84qq6i1N7GNslHXM6ioBNkPAQhAAAIQgAAEEgkoX7z5Ev3LmA+GHyxmWcIxMeA/lGZQWcOdUyEAAQhAAAIQgMAQgciXa75QDyFl0SYEGFQ2MQqZEIAABCAAAQjcSeBpUGE4uTMXN3TNoHKDy/QIAQhAAAIQgMC2BN4NKgwo21qK8EECDCqDoFgGAQhAAAIQgAAEqgl8HVIYTKrpc95qAgwqqx3gfAhAAAIQgAAEIAABCEDgLwIMKoQCAhCAAAQgAAEIQAACEGhHgEGlnSUIggAEIAABCEAAAhCAAAQYVMgABCAAAQhAAAIQgAAEINCOAINKO0sQBAEIQAACEIAABCAAAQgwqJABCEAAAhCAAAQgAAEIQKAdAQaVdpYgCAIQgAAEIAABCEAAAhBgUCEDEIAABCAAAQhAAAIQgEA7Agwq7SxBEAQgAAEIQAACEIAABCDAoEIGIAABCEAAAhCAAAQgAIF2BBhU2lmCIAhAAAIQgAAEIAABCECAQYUMQAACEIAABCAAAQhAAALtCDCotLMEQRCAAAQgAAEIQAACEIAAgwoZgAAEIAABCEAAAhCAAATaEWBQaWcJgiAAAQhAAAIQgAAEIAABBhUyAAEIQAACEIAABCAAAQi0I8Cg0s4SBEEAAhCAAAQgAAEIQAACDCpkAAIQgAAEIAABCEAAAhBoR+D/AAVydlKYVDVIAAAAAElFTkSuQmCC;" parent="1" vertex="1">
          <mxGeometry x="1477" y="1782.8" width="138.86" height="37.38" as="geometry" />
        </mxCell>
        <mxCell id="bGvglcOcgGs63UZLT-sc-1" value="&lt;p style=&quot;line-height: 120%;&quot;&gt;&lt;font face=&quot;Courier New&quot;&gt;ProtÃ³tipo&lt;/font&gt;&lt;br&gt;&lt;/p&gt;" style="rounded=1;whiteSpace=wrap;arcSize=2;labelBackgroundColor=none;html=1;labelPosition=center;verticalLabelPosition=top;align=center;verticalAlign=bottom;fontColor=#000000;strokeColor=#000000;fillColor=#021138;gradientColor=#040414;gradientDirection=south;" parent="1" vertex="1">
          <mxGeometry x="1770" y="51" width="1080" height="2569" as="geometry" />
        </mxCell>
        <mxCell id="bGvglcOcgGs63UZLT-sc-2" value="" style="rounded=1;whiteSpace=wrap;html=1;labelBackgroundColor=none;strokeColor=none;fontFamily=Courier New;fontSize=12;fontColor=#000000;fillColor=#080826;arcSize=35;" parent="1" vertex="1">
          <mxGeometry x="1770" y="2562" width="1080" height="60" as="geometry" />
        </mxCell>
        <mxCell id="bGvglcOcgGs63UZLT-sc-3" value="" style="rounded=0;whiteSpace=wrap;html=1;labelBackgroundColor=none;strokeColor=none;fontFamily=Courier New;fontSize=12;fontColor=#000000;fillColor=#080826;" parent="1" vertex="1">
          <mxGeometry x="1770" y="2522" width="1080" height="50" as="geometry" />
        </mxCell>
        <mxCell id="bGvglcOcgGs63UZLT-sc-4" value="&lt;h1 style=&quot;font-size: 24px;&quot;&gt;Feito por Pedro Cravo&lt;/h1&gt;" style="text;html=1;strokeColor=none;fillColor=none;spacing=5;spacingTop=-20;whiteSpace=wrap;overflow=hidden;rounded=0;fontSize=24;fontFamily=Verdana;fontColor=#B3B3B3;align=left;" parent="1" vertex="1">
          <mxGeometry x="2135" y="2548.8" width="350" height="46.09" as="geometry" />
        </mxCell>
        <mxCell id="bGvglcOcgGs63UZLT-sc-5" value="" style="shape=image;verticalLabelPosition=bottom;labelBackgroundColor=default;verticalAlign=top;aspect=fixed;imageAspect=0;image=data:image/png,iVBORw0KGgoAAAANSUhEUgAAAyoAAADaCAYAAABJs7ZDAAAAAXNSR0IArs4c6QAAIABJREFUeF7tnOF2pCmORHsfcJ52HnD3+FR7y+XK9IeIkBBw569BhG4EZMqu6f/5h/9BAAIQgAAEIAABCEAAAhBoRuB/mulBDgQgAAEIQAACEIAABCAAgX8YVAgBBCAAAQhAAAIQgAAEINCOAINKO0sQBAEIQAACEIAABCAAAQgwqJABCEAAAhCAAAQgAAEIQKAdAQaVdpYgCAIQgAAEIAABCEAAAhBgUCEDEIAABCAAAQhAAAIQgEA7Agwq7SxBEAQgAAEIQAACEIAABCDAoEIGIAABCEAAAhCAAAQgAIF2BBhU2lmCIAhAAAIQgAAEIAABCECAQYUMQAACEIAABCAAAQhAAALtCDCotLMEQRCAAAQgAAEIQAACEIAAgwoZgAAEIAABCEAAAhCAAATaEWBQaWcJgiAAAQhAAAIQgAAEIAABBhUyAAEIQAACEIAABCAAAQi0I8Cg0s4SBEEAAhCAAAQgAAEIQAACDCpkAAIQgAAEIAABCEAAAhBoR4BBpZ0lCIIABCAAAQhAAAIQgAAEGFTIAAQgAAEIQAACEIAABCDQjgCDSjtLEAQBCEAAAhCAAAQgAAEIMKiQAQhAAAIQgAAEIAABCECgHQEGlXaWIAgCEIAABCAAAQhAQCHw3//+93+V/SN7//Of//A9egSUsAbAAjy2QgACEIAABCAAAQisI1AxkMx0xxAzQ+3vPQwqHo5UgQAEIAABCEAAAhBIJtB1MPmpbYaW+VAwqMyzYycEIAABCEAAAhCAQDKBHYeTd0gYWmJhYVCJ8WI1BCAAAQhAAAIQgEAygZOGE/7aMh8WBpV5duyEAAQgAAEIQAACEDARuGU44a8t44FhUBlnxUoIQAACEIAABCAAATOB2weU7zj552G/iTComC8b5SAAAQhAAAIQgAAEngkwoPzMiIHln38YVJ7vESsgAAEIQAACEIAABAwEGE7iEG8eWBhU4nlhBwQgAAEIQAACEIBAgAADSgDWm6U3DiwMKnpuqAABCEAAAhCAAAQg8IYAQ4o3GjcNLAwq3uxQDQLbE8j8QLnpcd0+CDQAAQhAQCSQ+XkiSjti+w2fqQwqR0SVJiAQJ9DpA+SGxzbuEDsgAAEI7Emg0+fLngRjqk/+DGVQiWWB1RDYmsAOHx4nP7hbhwfxEIAABAYI7PA5M9DGdktO/exkUNkuigiGwDiB3T8wTn14xx1kJQQgAIE9COzweeP4TOnep6PHToljUOnkBlogYCDQ/RFVWjztAVZYsPc9gZPvwGrfuYOrHeh3fqf7tjKfcMjJJoNKDleqQqCcQKdHMrv5lR9G2b1RP07gpuzH6eTu4C7m8u1evcPd65hBuPiSy6DiY0klCCwh0OFBXNL4P//80/EDahWLG8+9Ofvd/OYudnMkX8+q+7dj1lax+kjBjry+ppdBJf8ucwIE7ARWPnr2ZgwFd3+IDQiuKUH2+1vNfezvkaJwxR08LVPVDHfmx6Ci3Fb2QqCYQPXjVtye5bidH2QLgAOLkPt9TeU+7uvdK+XVd/H0/FTy3JUlg8pZbwjdHEqg8jE7AeGuD/IJ7N09kH030fp63Md65hknVt7F2zJTxXZHrgwqGbeZmhAwEqh6wIyS25Ta8VFuA2+xEHK/2ICE47mPCVCLSlbdx9szAue/Ay0PKlVQi+4ix7wgcPvDsSoU3C0feTLsY5ldidxnE15fn/u43oOIguw7SR7+diOb+ceJu3CfHlQqIEYuEmvzCewS6nwS+Sdwv/yMya+fqbsiuXcT7VuP+9jXm6/Ksu8kOfg5B/D/55+pQSUb3B7X906VPCq5vnO3cvmS31y+SnWyr9Dbcy/3sbdvmXcS72Pe3+xFeFDJhBWzjdWrCPDA5JDnbuVwfVWVDNexHjmJ7I9QOncN97Gft1l3Eq/nvc7y5ENRZ19Cg0ompHnr2LmCQOdQr+ChnMm9UujN7yXD8+xcO8m+i+T+dbiPfTzMupd47PH4Nn+GB5UsMB7bqFJNgAfHQ5x75eE4W4Ucz5Lz7CP/Ho6nVOE+rncy607irdfbm3xiUPFm56pqPDya3VkPjabqzt1kud538l/PvPuJ3MO1DmXcSTzN8zTDrw+13TwbGlSyYOTZR+UqAt0CXdW3eg53SiXo30+W/UzfVST/dax3PIm7WO9axp3ExxofT/eOQaUmR8eewkMUszbjQYkpYPVPBMhzfj5W3wE8HvN4pU94NOaRa1WG13jocmesjtvDTv4xqIxlgFVvCHQK8w4muR+THXreTSOZznOsKv94mOfhR+UKH/Ew18PP6m4v8a3Gt1ennOolg8q6TB1xMo/SmI3uB2TsVFbNEiDXs+Te78u+A3jm9+ypIp4+Eer9c7d/3MEefjt97eApg0qPXG2rokOIu8NzPhrdez1JH9n2upl5D/DK61W0Gt5GifVY7/SNO9jD04y/lK32NmVQWd1Ur7jspSb6cOH1z/5Gee6VlvPVkm+Px1n3AH88/riqZPiMxy53/qzj9AqPcjxSq57iMYOKmoTD9keDzQPFoHLYFfirHTKuORx9U0ZOw5MRSuvWuD3Hb6+XTn/wxuuNu5rL65U+M6i4U7F5vWioV4a3O+ooy+793KyPnM+7774HeDHvReVOp+947nMOX3wsd6nk8nzVPWRQ2SVpRTqjgV4V3CIc08dEOU4fxMYyAmQ9jtp9D/Ag7sHKHU7/8d7jpMsT/PD4UVHF5fmH1hW+M6hUpGSjM6KBXhHa7jijDLv3g77fBMh7LA2uuwD3GPduqx05IAO6qw4fVn1Z1bu/u4LL+xX+M6jcnd2/uo+GmQ+PPxFG+RG//QiQ+THPXHcB3mO8O68iC+vdwYP1HqxWsGsGGFRWJ6fZ+dEg8yXit4FRds2sR06AALl/huW6D7B+Zr3DCvKw1iUHf+7iWg8dpztyUP1XFQYVh/MH1YiGmIfrl/lRbgdF5spWyP3PtrvuA5zPul6OXJCJeCYc3Ku/nMa7ZMcoAUceKu8hg8qos5esiwa4MqxdLYgy69oHumIEyP57Xo47Ad9YHjNXf/dT8UbNhnJ2JqOutVXen33BvavDc7ocuajKBIPKnMfH7oqGtyqonYFHmXXuBW0xAuT/b16u+wDbWBadqyMeRn2K1H7XU/RMJ5vdasF7N8dq9DpyUfVXttaDyiuQPFC5IY6G93Y/orxy3aP6CgK334HvzB13AqYrkvzrzBn/on7NnPGVSPS8dTTXnqxyrvoiupbSvafvko+Wg8ooPB4r/wUbZf958s0eRFlF3fqJbfbZUa2r169kdfMdeOW7I5swXXejZv2LeDZ7Bp87sVyonBlUYrx3XL1DRloNKrPAIg/kjkGq1Bz14Gb2UVZRH0fZZuuI6q5aP8pn9rfEkT4iWiJ1d1yr5hGW61yv9K7yrHVE152s8mVIWedd9clqVrLf7DaDSndQ1cFZdV7Uh+yAruLwdG6U01O97z+f4ZqtKdpD5voon2w2UT2ZbFbXVlnDco2Dqm/Rv3ao55GTn3OyM98n7XjvfSOeeI+clulJi0GlO6QRk05ZE/UiM5ydmUY5RXtRuGZri/biXD/LpYLJrDYnn9W1HJzhuMZFh3fR38IrZ5KT9zlRuEYHTmdaI7rx30l+7v+b9lVBph/HDCrRB9Jr8TnVIg/FrcyjjGbS4bj0FTpneovu2YmFQ2uUT6f1auZu57fKS9W32S8syrlkJW9QqWY7m4NqnavuZ9W5sz5kD7fLBxUVzHcDCa4W6agft/GO8pl1w8XVrfdJV/V5o3zdut6d+8RnVO+u61TOt/Nb5bvq24pB5dZflD1lRPWy+g4qequ1PrHf/eeKF5n3cemgokJ5FQqCq12VqCe38Y7ymXEjg2lEd8b5nxxW6oicPeNb9m+VFE1VexXGmbmr6n/XcxTf1F8WKmeTmb8Tp/DM/LL56m6oWqv17nq/I7pVTzLuJINKxMEL1kZDmhHKrpijbGb7yGT6tYfMc6K9V+g6wb8o1+r1CuNOeczm9hOnFRwU3xhUstMyXt/hY1X+HFoZVMazMbpS9SUjPwwqo+5dsi4a0oxQdkUdZTPbx01MZxnN7Kvy7+YPT4XxiblXeLzKeBYjp86oRuXs6Fkz78ZOexSWle+WqvOrJ2TAn1DVH7cnxw0qlZfNH4/1FaMBdQdyPYHXCqJclD5uYaowmtmLhzPUxveofE/IvcpgnPavlS5mTt1RTcrZ0bOifHdbvwtLRWflAL+b/y69qj/ue8mg4nL2kDrRgLoD2RVjlIvSxy1MFUYzeys9dH6JnOl1xR6V7865V3tX/XKwc/UQ1aKeGz1PZd11/y4cVZ0MKjUJVHxy30kGlRrPtzklGk53IDuCijJRe7iBqcpoZj8+zlAb36Py3TH3as/jdMdWqgzVfmbOX3HmGM29VikcZ3yboaNofDqvqocnHaf8XPXK6cdxg4oTzimBi/QRDecNvKNMIrz57ZBKa3x/tY+3/VVF4bvTO6L0OZ5WbeUsT6W3FWfedsfepULxrZKhqvOnWzGbP+2mnb1b8cvpB4PK2TkLdxcNpjOMYbEFG6I8HJJOZ+pgNFMDL2eoje9R+O6SeaXHcZK+lTNcZ3ucOeuz09kzK79k+1zxV1L4VTJUdT6RUzL4VPvGn6t+ufxYOqh8GK+C+BoeF5QbAzn7gXE6c2c+R3N1OtNRDu51K7ys/BLg5hWtp/DdIfNKf1GWzvUzbCO9ztT/3l/kvO97Hec7ea+otQM/ReMoU7IwSmpsneqZy4/lg4pzWHFBGbPwzFXRYJ7MPMrClYiTmboYzdTBzxlq43sUvp0zr/Q1Ti935Szfn3qfrfmqU4WxU0euCznVFXaVv0hRdY7Quz0LI4yiaxTfXH4cM6i4gERNPG19NJQnc4+ycGXhZKYuRjN18HOG2vgehW/XzCs9jZOrW3ki5649VbmqZLSSnaIzwrKyp4iuXdcqvrm8aDGoOP6q4gKya5hcuqOhPJl7lIXLg8rfcjk1d6610stb/FQYd3xHlH4634XTWHfsp9J/JaeV7BSdEZ6VPUV07bxW8c7hR5tBZXZYcUDYOUBu7dFAnso/ysHtw6lc3ZxG6+HnKKn5dQrjbnlXepknWLfzJN7deqlz8ddJs1mt5DarcZZlZW+zGnfap/jn8KLVoPJp3CgUB4CdwlKhdZT9p5ZTPYhycHtzKlc3p9F6q/284a8qCuNOeVf6GM1jh3WnMO/UR7WvSlYruSk6Z5hW9jajb7c9in8OL1oOKk8Di6Px3YJSpTcayFO9iHJw+3MqVzen0Xqr/WRQ+dmpLnnvkJPRTDvWncC9Sw8OP6I1lLxWclN0Rpnc8NbOMFH3zHroyFnrQUUFy/44gWgYHSGMq8zdEWWQoeZErhmcRmvi6Sip+XUK4w55V/TPU1u/c3f2HfSvclHJbCU3Recs28r+ZjXutE/xUPWCQWWnpBRojYZRDWBBS+EjogzCBzxsOJGpm9FMvdW+nv6bPoXv6swr2mey+HXPZ++rNKxm/8FC6b2DfjUDs/tnuVUzm9U5y+X0t1bhMrtX8VDNG4PKrGuH7ouGUQ1gN4zR/jP0n8Y0g9FszdX+nuytwnYlF0X3TA4jvVZpi2ia6flpj9Lnau1PvWX9fCdmitZZfrfmYpbX0z7FQ9ULBpUndy77eTSMagC74Y3279Z/Gk83H0e9lR6f7K/CdRUXRfNIFp197aR1hM3XNUpvTsZR3SvX78RM0aowvjUbCrOf9io+Kl4wqGQ5umndaBCV8HVEFO3f2cNpLJ1snLXw2Enzdy2F66rsK5p/opjdz6663zFT+slmnXNb9Ko7MVO0zpK6NRezvEb2KT4qfjCojLhz0ZpoEJXwdcQa7d/Zw2ksnWzctVb5fLLHCtMVXBS97/JY2cfu+vmLyvyrpnhfmdHPDhW9s5RW9DmrdZd9io+KHwwquySkSGc0iEr4iloKHRPtP1T8h8WncXRxyaqzyuePfk71WmG6gomi91UuT+hhVT4VL1Zwz3qXRuvuyEvRPMrlc92NmYgymlmveKh4wqAy45a4J2q2YnBUamdt0V6i66O9R+v/tL7SY6funWut8vtUrxWe1UwUrd8zX6391Z1z9rNiWFH0d+Bf/Q7uyEvRHOV7YyaijGbXz/qoeLJ0UJlt+B3gCIjqs13nRXqcCWJUZ7aemR5m90R7nz2n4xcdVy871cFvr1sKz8p3RNHZ+e7u3JeivTI73hszX21HXormCKkb8xDho65VfJz1hkFFde3f/e8MUEx9kjZr+k91o3ozNDz1nfXzaO8uHScxdDGpqoPnPtIKy8o7oOj8SqtS86hLrt6q/6qi6O7ow6hfs+tmea1kNas5wmhlfxGdO69VfJz1h0HFlJhXBiiGjsqaNf5d/ahm9/mjfWesi/bu0nASQxeTqjp47iOtsKy6A4rG76SqNEcdcvVY2Z+iuVJn1Ius9bO8VrOa1T3CcXVvIxpPWKN4OOsRg4opOd8NUMyMSpo1/9U5Ud3Os6N9u9dHe3ecfxI/B4/qGis8r/5tdRVThWXVPVA0fuVYpXfWO0eflT0qeit1zvrh3jfLazWrWd1P/Fb39aTvpJ8rHs76xKBiStCnAYqJipTZAHw/M6rfda7Su2tvtHfHuSfxc/BYUQPfPdQVjlX3QNH4SalKq+rKTr0qWnfxQ/Xz6/5ZXqtZzer+id3qnpy+7lJr1sdZrxhUTMn4MGDWPJMEy3/2NNrDbPBcPbvqRPt2nXsKPxePFXVWeH+i7wrHCh6Kvt2GlA+9O/WraK3Izop36aczZ3l1YDWr/R2PDj11y0e2nlkPZ71iUDE52mFQ+WhlNgifGKIBVM8z4ZfLRPuWDzR45dBADc8XuhmOp9yd2bfjK7MKFo47XqFzJkvv9qg9V/Wr6KzS6PRFrTXLqwOrWe2vmHXoR/Vyx/2zHs76xaCyY0oeNM+GYea3cMpZndDPXjylh1PYKQw67F3hveOXCh3YfdWgcKy4C4q+Xf1Se67qW9FZkZ1Od+0EVkoP3724zf8OWZz1b9YrBpUOrps1zIaBQcVsROJAWav07NNmH12VinJP1bMz9iscs1ko2j5ZZWvM8GTmTV/xRVDxZ1dfZv0+gZXSw4p8znp16r5Z/2bvKoPKoUmaDUQ0gLPndMMe7duh/xR2DhYra6zwvuo31ZVcFY7Zd0HRtrtXau8V/Ssas7NTeYdGzjqFldIHw8pIUvLWzHo3e1cZVPK8XF55JhTRAM6csRzMCwHRvh09nMLOwWJljRXeV3z5q2aqcMy+C4q2E7zq3r+iLzs71ffo6bxTWCl9MKg8pST357Pezd5VBpVcP5dWnwlFNIAzZyyF8ubwaN+OHk5h52CxssYK70/48vvdM4Vj5l1QdJ3iU3cGir7M7Kx8l96dfRIrpReGlXXpnPVt9q4yqKzzuuTkaDCiAYzWL2l64pBo3xNH/LXlFHYOFqtr4L/ugMIw8y4ouhhUfuUi05+P+opH2dr0m+GtcBIrpZdXVG/LgjdZ49VmfZv1h0Fl3JstV0aDEQ1gtH5XiNG+HX2cws7BYnUN/NcdUBhm3gVFV8WXdJ38WAWFQ6Y/DCpj/n2u6uxjrJNfq5V+vp+XndOZ/k7cM+vZrD8MKiem6EtP0WBEAxit3xV3tG9HH6ewc7BYWWOF9yd9Ae7+BUr195R7qnDIZtBZ28q36dXZJ7JSemJYqU/orF+z7wiDSoHHP5kza/io7Ggwonqi9Ud1V6+L9u3Qdwo7B4uVNVZ4z6Dyp+OZd0H1N1NbZe47c1C0neLPaBZOZKX09IrbbZkYzY5r3axfs74wqLic+1YnYsis6aPSM7VEao/qXbEu2wMe0xWujp25wnsGlT0GlVPetw/aas4zWSjaMnWNvSC1q05lpfTF5+seGZy9qwwqCf7OmOG+pF/biuiJ6ojUTkBtKxnt23HwKewcLFbWWOE9gwqDSnXm1ZxnvleKtkxd1R6NnHcyK6W37+xuy8VIdlxrZn2a9YRBxeXclzqzZsya/9RCRE9UQ6T2k86VP4/27dB6CjsHi5U1VnjPoMKgUp15NeeZ75WiLVNXtUcj553OSumPYWUkQfqaWY9m7yqDiu7ZHxVmjfgsMhuAn9qIaIqeH6ltRm0tF+3bcfgp7BwsVtZY4T2DCoNKdebVnGe+V4q2TF3VHo2eN8trB1azvb1jt0PPo753WTfr0awXDCpG52dN+CphNgAMKpqRGdyfFDny8nQGP38msMJ7BhUGledkeleoOc98rxRtmbq8DviqzfLahdVsfwwrvoz9VGnWn9n8MagYfZ014buE2RA4Lmn0bFfPRhumSkX7njrk26ZT2DlYrKyxwnsGFQaV6syrOc98rxRtmbqqPRo9b5bXTqxme3R8Dxr14dZ1s97M5o9BxZS0WQNeHT8bAscFjZ7t7NtkxVSZaN9ThzCoOLDZa6zwnkFlj0HlJJ/UnGe+9Yq2TF32x8ZUcJbXbqxm+/wJ824MTJGxlVE8mWXPoGKyb9YABhWTAWIZ5fIpRztzo+i4eS/ee9xXOGbeA0UXg8rvbHT1KFOX52b4q8xmejdWs30yqPgz91lR8WQ2fwwqJj9nDWBQMRkgllEun3K0MzeKjpv34r3HfYVj5j1QdDGo/MpGpj8f9RWPsrV5boe3yiyvHVnN9tppWHnXw21+zPbLoGJ6P2YNYFAxGSCWyXgMRyQ5czNyHmv+JLDK94ovf9VeKywz74Gi6xSfOjPorK36Do2epzDLvGuj+qPrlH5XDiwR3bv4EunpO/vZHhlUojfmzfpZAxhUTAaIZZTLpxztzI2i49a9q3w/5Qvw19woLDPvgaLrFJ+6M1D0ZWan67t4Iy+l51XDSlTzDlmO9vTJXumNQcX0EikmfJcwG4R3rUS0Rc+O1DahTikT7dsp4hSGTiZVtfDdR1phmX0HFG0nDCvd+1f0ZWfHd0N8lW7lpfRdPawoWrtmelVPDCqmt8MZLCUMr9qJaIueHaltQp1SJtq3U8QpDJ1Mqmrhu4+0wjL7DijaGFT4/6j4bomnkpLn7Lvm6fB9FaX3J20uNk6NLk1PvY/8XOlL6YNBZcSdgTWKCfxFZQBw8hLlAqrSnNlRtdy0H8+9bis8s++Aou2TUrZGrxu/q6m9V/StaKzQl+WNUvdmZkrvI8zVTGXoUzWN9P20RulL0c+g8uTM4M8VExhUBiEnL1MuoSLNmR1Fx217V/n9wflEzxWeFTwUfbt6pvZc1beisyI7Hd/G25kp/Y/4OZurTF2zmkb6HVmj9KZoZ1AZcWdgjWICg8oA4IIlyiVU5Tnzo2q5ZT9+e51WeFbkX9G3619VdulZ0VmRHe9N8VSDmfaftR51IZIvxZNRPSvfotn+IgxfcWBQiabjzXrViK9lZ8PwrpWItujZkdom1Gllor07hZzE0cklq9ZKr6t+S53F7l1dhWlF/hV9K78czPq4U7+K1orszHqQuQ9mv+gqHKL+/JS1Sh0r3iOlP/WOMqhEk8qg8gcBNYAm/JYyykVUBZzEUWVRsX+l1wwqfztckX+X5xVaHXfA0W9Vr4rWKo0OT9w1ZrmdxGyWwawXr9hVa/iqvcpLpUdVI4PKbFq/7VON+FpOCcSrdiLaomdHaptQp5WJ9u4WchJLNxtnPXx20vxdS+FalX1F44ovB7NO7danorcqO7NeZO6Dm+f9yfQou3ZV/ldmjUHFlCJnWJRAMKjMG+rmPqPEmaOZ82/Ys9rnUz1WuFYxUTR+vxtVmqN30tVjZX+K5kqdUS+y18PtT8IKj2yvsupX5X+WrUMfg4opPQ4zPqXMBuJdKxFt0bMjtU2o08pEe88QchLPDD5qTTxWCb7fr7CtzL2is/tfVVy9ffS5iyeVOvNuz3zlWc9P5TbLY96BtTsrfFSYOvQxqJgy5jCDQcVkhlBGuZDCsX9sdWbJpemUOvib56TCtjLzis7Of1XZuS9Fe2V28m7PfGXY/c1OYTLvxJqdFflXeDr0MaiYsuUwg0HFZIZQRrmQwrEMKi54P9TB21zICl/n+znSpaK147Di7Kf6rykf5yn6q7Mzkq/KNbB7TVvhUumfelZ2/lWODn0MKmpK/t3vMINBxWSGUEa9lMLRDCsueC/q4Gsi3H9LK4yd7+dIp4rWd/Wre+jweTHCemSN4scq7iN9VaxR2K0YSiuYZN2NSu2jZ2XnX8mXSxuDymgaHta5DFF/u/RKZkRbNJSR2ibUqWWi/WeKOY1tJqun2l18PdlThfEKLoreLsOKu4cVPqifeas0P705lT9XcnADP4VPpY8zZ2X7p7BzaWNQmUnGiz0uQ9RHm0FFN1S5mPrpf1Zw5sqtbZd6+FnjlMJ5Rc4VvU9Es/vJ0p6t+x03pZ9Vmp8yUPlz+D3TVhg9V1+zIjv7KjOXPgYVU75chjComAwRyqiXUzj65VZnttzaOtfDx1p3FN6rMq5oHqHr7itTr1vrCJ/PNUpfK3VHesxcq/D70HULQ5VTpocztbN9U3g5tTGozKTjxR6nKUo4XrUT0RY9O1LbhLqkTJRDtqhTOWdx6+bfDV8GFOYr863ojuR3pscqbavzqfQ5wzXi2y5rYTjulMJq/JT8lZnZVxk5tTGomLLkNEUNyPeWItqiZ0dqm1CXlIlyqBB1Kms3u47erf4i6Gb8qp7CfXW2Fe2zbN/13EnLbG/RfUrPq7MT7TVrvcLwhvfJ/WZl+ThaNzv3Sp7c2hhURlPxsM5pjBKQVzIj2qJnR2qbUJeUiXIoEXXRn+hneeLbLDl9n8K+wzui6NfprauwO/sO+te59+fJSoZv5qhwW+V9tl8KE7c2BhVTypzGKAFhUDEZKv63/X0qXldy5i1ba0V9951xa77BL8WDDnwU/e68VNXrwP2jV4V9lx6qPPvpHIXjrX9V+cpT5VeVgezMqxzc+hhUTMlyGqOG5HtLEW3RsyO1TajLykRZlAn7ctDJ/Ed44tEIpZo1ihddcqz0UEN2DPaBAAAOUklEQVTZd0oX5gwqPk/V/HbKhI9KrJLKMHZafHW2R2r/GfoYVOI5ebnDaY4aFAYVj6luHzyqXldx5i9Tp7P2Lv7c4o3iRydGSh/OfGfW6sSbQcXrtJrfbtnw0olVU1nGTnteXeGN2nOGRgaV52wMrXCaowaFQWXIsqFFqhffc6HWexLtzOHTWSt+ns0vo6fTPflkpnjTjZHSS0aGnDW7sWZQcbqr/TO6DyUd8+ElNFdt9ZtQ4YvaY5ZGBpW5zP61y2mQGhYGFZOpyf922u3zq66dufRRHa9UwWhcTXzl7vwjHStedeWk9BRhV7X2RM5de6ry9NU5am5h+t49lW00F5VeqL1laWVQiabmzXqnQWpYGFRMpv5bRvHjKRdK7WiXH1o+znvSFK3rXl/JxK1duXvZWrLrK751zqTSVzbzSP1TGXfuK+KPc62aWZg+u6Eyfj6h9q9baj+ZmWFQGUnLwBqnSWpglC9L0bOdfQ9gXrIkymSGv3qGAmaVhyt7VniN7l3FdVSfe53iZ3dWSm9uztF63dl+9KPw3aG/qGeO9QrTj/PhGnNB5f152gruDu2ZuhlUYll8u9ppkiM0X4VGtEXPjtQ2oV5SJsplp2FllYcq0yVBCBy6imtAonWp4ucurJQerbAHi93AdZceBy2zLXNkFbbzdkT4r+Yc0fqKSLZ+BpX5HP6x02mUGpqZL8mfe6JnO/s2WZFSJsrlnYifeLnOiAJY5eGqfqN8ZtavYjqj1bVH8XMnXkqfLtZPdW7iuVOvT765f65mFbZuR/rVUzPy0VF2ThhUTLlxGuUIzte2ItqiZ0dqm1AvKxNlMzOsfOxxnTMCarV/lb2O8HCtWc3V1UekjuLljryUfiNcI2tv5LhjzxFPlbWOjMJXcaD33l3ywaBiypHzMjvCw6BiMvZLGacvXf6y4sztLHEn11kNzn0dmDr7Ga2l+rgrN7XvUb4/rduVneMXMzv37vD+qYaaT/g+Ed7352o2PjqvyAeDiiljTrMc4WFQMRn7rYzLm6e8uM7Z4ctNRa85aXhd9cnbSi2VZ6k+7s5N7X/Gq92ZMajMuB7bo+byhIzFiN2xWs1F1ZDycQ6DiimTzsvsCBCDisnYpEHl6ZK7M/CKhjOzKu2KflWNI/s7MR3R61yjengaO5XHO2/g9JvMaSyc9/GzlppDGGe4srammolP9VXZYFAx5cVpmCtEM2GKnu3s22RFepkoo58ErfonYN18czJND8APB3TjWs1C8fEGdhE+N/D4yGeEyfc838JIuccK36dfqCm62LuGgJqHme+VaqdLBxX1kVKBOQzLfChX6Iuemdm/Gu7M/VFO3YaVbr45eWb6PuvjKk3V5yo+dstkNbtbzyMzuc7DN5fvbtWVPKjfuWdZLR9UZoWzL4dANMS3frmIclK+4DrPWvXQPKU1o8enM50/v/UefGeo+ghHZyr3qKVkhrw8ewzfZ0a3rFCy8JVR9b1jULkloYN9RoNcHdjBNkqWRVm9EzXC0HVW10HlQ5e7x5IQ/HvIiIeVeladpXoIx1XOrTmXvORyV/hyF3O9qa6uZGHlkPJxNoNKdVqanxcN8+2PWZRXh2Glq2cultVXrCvPag6OYROWK1xbd6Zy58nKs2/wfWZ0wwolB6uHFAaVGxIa7DEa6Ns/LKK8lEHlc696ZlfP1L6CUbcs78rS0txkEdVHmE6C33CbkhVy8mw4fJ8Znb5CyUCHIYVB5fSETvQXDTUfFr5/shRlOepVtO5EbCxbRvuxHGYqsgtbU7tDZVQfYTqEeftF5CTXQoUvdzDXm6rqSga+a1yZCf7pV1ViNjknGuyV4e2ENMrtlfbbWToYVmbidr/esVZ9hGtlitecpWbkQzU5+dk7hTFs19wL56mK/52GFP6i4kzFIbWi4eZB+2V8lNu7uNzM08Ww4ire7NMTX4eP8H2ivPfP1YyQj2f/FcbwfebbeYXifbchhUGlc9IWaYsGnAftt1FRdvxV5U8CDn4V14bM5/0m97MyjCuSvO4M9a6Tj7w7CNt190I9Wb1XXb+T8E+/1GQctj8adB41/5ftW5lGs7fq6t3qT4S3w0s4R4jvs5Zs5HulMObe5fuTcYLi+Ts9XbLAoJKRmI1rRsPeJcidkEcZdv0tRjVTB7dszeR9jLDDS1iPsd5pFbnId0tlzL3L98h9gup59+8gKYOK2wTq9SXAo/baG8fDcRtbB7PMm3KbHypLh58wV13otZ9M5PuhMubO5XvkPEH1u/uQ8qGPQcWZmAtr8ai9N93xgNzE18Er6wre5IOLoctP2LscWVuHPNTwVzhz12o8cp2ieP1OQ8cMMKi4EnNpnY6h7mSF4yG5hbGDVYb3t/DPYOfyFA8y3KmrSQ72YM09q/NJOcl1n75r6Oo/g4qSlsv3dg11J1ucD8rpvJ2sXBk4nbmL07s6Tk/xItutnPpkIIfrq6oK6+z79akt+5w62vUnKf4+qe3sy9Cg8tFgJqAngPy8J4HOwe5ELOPunMg+g5OSgxMZKzxm9zp9xZNZF9bsw/ta7grvrLv1SlPWWbW0a09TvH1S2t0PBpUnB/n5SwLdg93RtqyH5icvdvqQyOIzkwXyPUPt9R63r3jj8yazEr5n0vXfNee9GvXeeWY97ZoTR1nOqtnBg+FBhb+qzMbgzH07hLsj+exHZ6Tnrt51YPPBryufEW+7rnF7i0ddnc751xf4/ey3csdUvsrZvLnvvVW5PqVG9f2pvuvnDCoukhfV2SXcXS3Jfnye+u7q32oufGA+JWf+51neds3yPKl9d2Z5zL0cy4TCf+YeKee962hGxxidfVZlcH3V/U6sQ4MKf1XZJ+yZSncKeCYHpXbVY7TTA7WSCV+GlDSP7c30lzdpzIOsVXibRXasrsp/9P6o54x1c+9fteH7OiHhQeWzTBXQ0WCzLp/A6GOWr+SME1bdoa4+wuOMXP/URbbHXbN9qrP42cNZxYenO6PUVuk8aVPrd9hfyXdXngwqHZK6iYZdQ94Zb+Uj9cmhq48rWPCXlNrbscLjrnmvJa+fVu0dvo17pnjzlbNSZ1zt3MqT8rCK864MpweVr1FbBX0u7uyKENg12JEeV6+tvj9dPYXD6iTWnF/t86uuVt2Bj95XnT3qbgd/+AXCqFu/1imefeZRqRFTq63ufn9+6m4V452ZffC0DCpa7NgNAQioHzYRgl0frapHvGv/EQ93X1vl9e6cbtXPHR13/ua7tENOVvuzA6OntDOoPBHi5xAoJFDxqHV9uG7uvTBibY6q8LtNswgZJtD1fRpuoHgh9+hP4Kvz08WP1Ryc14BBxUmTWhAwEch87Lo+YJk9f9jStW9TZLYsk+35llAuFs0djZvPHRpj5s5WZ+7uXscI561iUMljS2UISASyHsKuj9ht/UrhOGhzlu8HIbqila7vUmf43J3O7qzRduI9YlBZkyVOhcAwAfeHUdeH7JY+h42/bKHb/8vwbdtu1/doB6DcmR1cqtF48j1iUKnJEKdAQCbg+lDq+qC5+vsA3bVHOQQHF3D6fzCmo1rjnmp2cmc0fifsvuEOMaickFR6uIaA44Op68Pm6I0hZe+r4MrA3hTuUN/1HdqFPndlF6fydN5yhxhU8jJEZQikEpj9oOr6uM32w3CSGrMlxZUsLBHMocMEur4/ww00WbjLHfnq9y6am1j8VsZtd4hBpXsi0QeBBwLRx7/zIxfppXMfhNZDIJIHz4lUySTAnfXQ7XwvRjzurN/jkL/KCFf/qT0qMqj08AEVEJAJjD7+nR+8E3qQjaTAXwRGcwG6ngQ6vzk9if2squN9mPG4Yx8d8zDDtmMfs5oYVGbJsQ8CjQm8+gDY5bF79+G1i/7GsdhaGl9q9rOPO5vjWYe74PS2Qz85TmlVnYw1JWt3M6is5c/pEIAABCAQJMAXmyCw4uV8wcoFvir/Fb6u6i3XsfHqFYzH1fRYyaDSwwdUQAACEIBAkMDtX2qCuFKX8wUrFe//F6/O/Cpfq/usce/1KasYr+w5cjaDSoQWayEAAQhAoCWBm77YdDKAL1m1blTkvJunFT3XuvjrtG6cVzAYOZNBZYQSayAAAQhAYEsCp37JqTaDL1XVxF+fl5XnXfzN6r/C3V0YV7CInMGgEqHFWghAAAIQgAAEILCAgPNL+klfmp1cnLaexNjJJVqLQSVKjPUQgAAEIAABCECgmID6hfymL84qq6i1N7GNslHXM6ioBNkPAQhAAAIQgAAEEgkoX7z5Ev3LmA+GHyxmWcIxMeA/lGZQWcOdUyEAAQhAAAIQgMAQgciXa75QDyFl0SYEGFQ2MQqZEIAABCAAAQjcSeBpUGE4uTMXN3TNoHKDy/QIAQhAAAIQgMC2BN4NKgwo21qK8EECDCqDoFgGAQhAAAIQgAAEqgl8HVIYTKrpc95qAgwqqx3gfAhAAAIQgAAEIAABCEDgLwIMKoQCAhCAAAQgAAEIQAACEGhHgEGlnSUIggAEIAABCEAAAhCAAAQYVMgABCAAAQhAAAIQgAAEINCOAINKO0sQBAEIQAACEIAABCAAAQgwqJABCEAAAhCAAAQgAAEIQKAdAQaVdpYgCAIQgAAEIAABCEAAAhBgUCEDEIAABCAAAQhAAAIQgEA7Agwq7SxBEAQgAAEIQAACEIAABCDAoEIGIAABCEAAAhCAAAQgAIF2BBhU2lmCIAhAAAIQgAAEIAABCECAQYUMQAACEIAABCAAAQhAAALtCDCotLMEQRCAAAQgAAEIQAACEIAAgwoZgAAEIAABCEAAAhCAAATaEWBQaWcJgiAAAQhAAAIQgAAEIAABBhUyAAEIQAACEIAABCAAAQi0I8Cg0s4SBEEAAhCAAAQgAAEIQAACDCpkAAIQgAAEIAABCEAAAhBoR+D/AAVydlKYVDVIAAAAAElFTkSuQmCC;" parent="1" vertex="1">
          <mxGeometry x="1880" y="2546.8" width="210" height="56.53" as="geometry" />
        </mxCell>
        <mxCell id="bGvglcOcgGs63UZLT-sc-7" value="" style="ellipse;whiteSpace=wrap;html=1;aspect=fixed;labelBackgroundColor=none;strokeColor=none;fontFamily=Courier New;fontSize=12;fontColor=#000000;fillColor=#B3B3B3;gradientColor=#021138;gradientDirection=west;" parent="1" vertex="1">
          <mxGeometry x="2310" y="170" width="453" height="453" as="geometry" />
        </mxCell>
        <mxCell id="bGvglcOcgGs63UZLT-sc-8" value="" style="shape=actor;whiteSpace=wrap;html=1;labelBackgroundColor=none;strokeColor=#021138;fontFamily=Courier New;fontSize=12;fontColor=#000000;fillColor=#B3B3B3;strokeWidth=2;" parent="1" vertex="1">
          <mxGeometry x="2400" y="227.69" width="284.65" height="335.31" as="geometry" />
        </mxCell>
        <mxCell id="bGvglcOcgGs63UZLT-sc-9" value="&lt;font&gt;Contact me&lt;/font&gt;" style="rounded=1;whiteSpace=wrap;html=1;labelBackgroundColor=none;strokeColor=none;fontFamily=Verdana;fontSize=12;fontColor=#021138;fillColor=#B3B3B3;arcSize=50;fontStyle=1" parent="1" vertex="1">
          <mxGeometry x="2600" y="76" width="218.5" height="44" as="geometry" />
        </mxCell>
        <mxCell id="bGvglcOcgGs63UZLT-sc-10" value="" style="html=1;verticalLabelPosition=bottom;align=center;labelBackgroundColor=#ffffff;verticalAlign=top;strokeWidth=2;strokeColor=none;shadow=0;dashed=0;shape=mxgraph.ios7.icons.pause;pointerEvents=1;fontFamily=Verdana;fontSize=12;fontColor=#FFFFFF;fillColor=#B3B3B3;rotation=90;" parent="1" vertex="1">
          <mxGeometry x="1830" y="62.74999999999999" width="21.5" height="55.75" as="geometry" />
        </mxCell>
        <mxCell id="jE6FvV27xrME2yMLQuQx-6" value="&lt;h1 style=&quot;font-size: 22px;&quot;&gt;&lt;br style=&quot;font-size: 22px;&quot;&gt;&lt;/h1&gt;&lt;p style=&quot;font-size: 22px;&quot;&gt;Lorem ipsum dolor sit amet, consectetur adipisicing elit, sed do eiusmod tempor incididunt ut labore et dolore magna aliqua.&lt;/p&gt;" style="text;html=1;strokeColor=none;fillColor=none;spacing=5;spacingTop=-20;whiteSpace=wrap;overflow=hidden;rounded=0;fontSize=22;fontFamily=Verdana;fontColor=#B3B3B3;" parent="1" vertex="1">
          <mxGeometry x="1873" y="524.38" width="500" height="155.62" as="geometry" />
        </mxCell>
        <mxCell id="jE6FvV27xrME2yMLQuQx-20" value="&lt;h1 style=&quot;border-color: var(--border-color); font-family: Verdana; font-style: normal; font-variant-ligatures: normal; font-variant-caps: normal; letter-spacing: normal; orphans: 2; text-align: left; text-indent: 0px; text-transform: none; widows: 2; word-spacing: 0px; -webkit-text-stroke-width: 0px; text-decoration-thickness: initial; text-decoration-style: initial; text-decoration-color: initial; font-size: 38px;&quot;&gt;&lt;font style=&quot;border-color: var(--border-color); font-size: 38px;&quot; color=&quot;#ffffff&quot;&gt;Meu nome Ã© Pedro Cravo&lt;/font&gt;&lt;/h1&gt;" style="text;whiteSpace=wrap;html=1;fontSize=38;" parent="1" vertex="1">
          <mxGeometry x="1873" y="400" width="290" height="189" as="geometry" />
        </mxCell>
        <mxCell id="PevCllGS_lHWabjhOKVi-1" value="&lt;h1 style=&quot;&quot;&gt;&lt;font color=&quot;#ffffff&quot; style=&quot;font-size: 38px;&quot;&gt;Sobre mim:&lt;/font&gt;&lt;/h1&gt;&lt;p style=&quot;&quot;&gt;&lt;font style=&quot;font-size: 22px;&quot;&gt;Lorem ipsum dolor sit amet, consectetur adipisicing elit, sed do eiusmod tempor incididunt ut labore et dolore magna aliqua.&lt;/font&gt;&lt;/p&gt;&lt;p style=&quot;&quot;&gt;&lt;font style=&quot;font-size: 22px;&quot;&gt;Lorem ipsum dolor sit amet, consectetur adipisicing elit, sed do eiusmod tempor incididunt ut labore et dolore magna aliqua.&lt;/font&gt;&lt;/p&gt;" style="text;html=1;strokeColor=none;fillColor=none;spacing=5;spacingTop=-20;whiteSpace=wrap;overflow=hidden;rounded=0;fontSize=22;fontFamily=Verdana;fontColor=#B3B3B3;" parent="1" vertex="1">
          <mxGeometry x="1873" y="676.5" width="877" height="243.5" as="geometry" />
        </mxCell>
        <mxCell id="PevCllGS_lHWabjhOKVi-2" value="&lt;span style=&quot;font-size: 30px;&quot;&gt;Lorem&lt;/span&gt;" style="rounded=1;whiteSpace=wrap;html=1;labelBackgroundColor=none;strokeColor=none;strokeWidth=4;fontFamily=Courier New;fontSize=16;fontColor=#021138;fillColor=#B3B3B3;gradientColor=none;gradientDirection=east;fontStyle=1" parent="1" vertex="1">
          <mxGeometry x="2176.5" y="1012.6300000000001" width="270" height="65" as="geometry" />
        </mxCell>
        <mxCell id="PevCllGS_lHWabjhOKVi-4" value="ipsum" style="rounded=1;whiteSpace=wrap;html=1;labelBackgroundColor=none;strokeColor=none;strokeWidth=4;fontFamily=Courier New;fontSize=30;fontColor=#021138;fillColor=#B3B3B3;gradientColor=none;gradientDirection=east;fontStyle=1" parent="1" vertex="1">
          <mxGeometry x="2483" y="1012.6300000000001" width="270" height="65" as="geometry" />
        </mxCell>
        <mxCell id="PevCllGS_lHWabjhOKVi-5" value="&lt;h1 style=&quot;&quot;&gt;&lt;font color=&quot;#ffffff&quot; style=&quot;font-size: 30px;&quot;&gt;Dev&lt;/font&gt;&lt;/h1&gt;&lt;p style=&quot;font-size: 22px;&quot;&gt;&lt;font style=&quot;font-size: 22px;&quot;&gt;Lorem ipsum dolor sit amet, consectetur adipisicing elit, sed do eiusmod tempor incididunt ut labore et dolore magna aliqua.&lt;/font&gt;&lt;/p&gt;&lt;p style=&quot;font-size: 22px;&quot;&gt;&lt;font style=&quot;font-size: 22px;&quot;&gt;Lorem ipsum dolor sit amet, consectetur adipisicing elit, sed do eiusmod tempor incididunt ut labore et dolore magna aliqua.&lt;/font&gt;&lt;br style=&quot;font-size: 2px;&quot;&gt;&lt;/p&gt;" style="text;html=1;strokeColor=none;fillColor=none;spacing=5;spacingTop=-20;whiteSpace=wrap;overflow=hidden;rounded=0;fontSize=2;fontFamily=Verdana;fontColor=#B3B3B3;" parent="1" vertex="1">
          <mxGeometry x="1873" y="1111.88" width="887" height="218.94" as="geometry" />
        </mxCell>
        <mxCell id="PevCllGS_lHWabjhOKVi-6" value="&lt;font style=&quot;font-size: 30px;&quot;&gt;Dev&lt;/font&gt;" style="rounded=1;whiteSpace=wrap;html=1;labelBackgroundColor=none;strokeColor=#B3B3B3;strokeWidth=4;fontFamily=Courier New;fontSize=16;fontColor=#B3B3B3;fillColor=none;gradientColor=none;gradientDirection=east;fontStyle=1" parent="1" vertex="1">
          <mxGeometry x="1873" y="1012.6300000000001" width="270" height="65" as="geometry" />
        </mxCell>
        <mxCell id="PevCllGS_lHWabjhOKVi-7" value="&lt;h1 style=&quot;font-size: 38px;&quot;&gt;Ultimos projetos&lt;/h1&gt;" style="text;html=1;strokeColor=none;fillColor=none;spacing=5;spacingTop=-20;whiteSpace=wrap;overflow=hidden;rounded=0;fontSize=38;fontFamily=Verdana;fontColor=#FFFFFF;fontStyle=0" parent="1" vertex="1">
          <mxGeometry x="1873" y="1345.75" width="370" height="70" as="geometry" />
        </mxCell>
        <mxCell id="PevCllGS_lHWabjhOKVi-9" value="&lt;font color=&quot;#021138&quot; style=&quot;font-size: 22px;&quot;&gt;IMG&lt;/font&gt;" style="rounded=1;whiteSpace=wrap;html=1;labelBackgroundColor=none;strokeColor=none;fontFamily=Verdana;fontSize=11;fontColor=#FFFFFF;fillColor=#B3B3B3;gradientColor=none;gradientDirection=east;arcSize=6;" parent="1" vertex="1">
          <mxGeometry x="1850" y="1440" width="290" height="290" as="geometry" />
        </mxCell>
        <mxCell id="PevCllGS_lHWabjhOKVi-10" value="" style="html=1;verticalLabelPosition=bottom;align=center;labelBackgroundColor=#ffffff;verticalAlign=top;strokeWidth=2;strokeColor=#B3B3B3;shadow=0;dashed=0;shape=mxgraph.ios7.icons.folders;rounded=1;fontFamily=Verdana;fontSize=11;fontColor=#FFFFFF;fillColor=none;gradientColor=none;gradientDirection=east;rotation=90;" parent="1" vertex="1">
          <mxGeometry x="2564" y="1498.15" width="270" height="183.88" as="geometry" />
        </mxCell>
        <mxCell id="PevCllGS_lHWabjhOKVi-18" value="&lt;h1 style=&quot;font-size: 38px;&quot;&gt;&lt;font color=&quot;#ffffff&quot; style=&quot;font-size: 38px;&quot;&gt;Entre em contato:&lt;/font&gt;&lt;/h1&gt;" style="text;html=1;strokeColor=none;fillColor=none;spacing=5;spacingTop=-20;whiteSpace=wrap;overflow=hidden;rounded=0;fontSize=38;fontFamily=Verdana;fontColor=#B3B3B3;" parent="1" vertex="1">
          <mxGeometry x="1873" y="1825" width="399.65" height="70" as="geometry" />
        </mxCell>
        <mxCell id="PevCllGS_lHWabjhOKVi-19" value="" style="sketch=0;outlineConnect=0;fontColor=#232F3E;gradientColor=none;fillColor=#B3B3B3;strokeColor=none;dashed=0;verticalLabelPosition=bottom;verticalAlign=top;align=center;html=1;fontSize=12;fontStyle=0;aspect=fixed;pointerEvents=1;shape=mxgraph.aws4.email_2;rounded=1;labelBackgroundColor=none;strokeWidth=4;fontFamily=Courier New;gradientDirection=north;" parent="1" vertex="1">
          <mxGeometry x="1872.9999999999998" y="1940" width="79.59" height="50" as="geometry" />
        </mxCell>
        <mxCell id="PevCllGS_lHWabjhOKVi-20" value="&lt;h1 style=&quot;font-size: 22px;&quot;&gt;&lt;font style=&quot;font-size: 22px;&quot;&gt;pedroh.s.cravo@gmail.com&lt;/font&gt;&lt;/h1&gt;" style="text;html=1;strokeColor=none;fillColor=none;spacing=5;spacingTop=-20;whiteSpace=wrap;overflow=hidden;rounded=0;fontSize=22;fontFamily=Verdana;fontColor=#B3B3B3;align=left;" parent="1" vertex="1">
          <mxGeometry x="1970.35" y="1950" width="429.65" height="30" as="geometry" />
        </mxCell>
        <mxCell id="PevCllGS_lHWabjhOKVi-21" value="" style="shape=mxgraph.signs.tech.telephone_3;html=1;pointerEvents=1;fillColor=#B3B3B3;strokeColor=none;verticalLabelPosition=bottom;verticalAlign=top;align=center;rounded=1;labelBackgroundColor=none;strokeWidth=4;fontFamily=Courier New;fontSize=12;fontColor=#B3B3B3;" parent="1" vertex="1">
          <mxGeometry x="1887.7999999999997" y="2010" width="50" height="50" as="geometry" />
        </mxCell>
        <mxCell id="PevCllGS_lHWabjhOKVi-22" value="&lt;h1 style=&quot;font-size: 22px;&quot;&gt;+55(27)99729563&lt;/h1&gt;" style="text;html=1;strokeColor=none;fillColor=none;spacing=5;spacingTop=-20;whiteSpace=wrap;overflow=hidden;rounded=0;fontSize=22;fontFamily=Verdana;fontColor=#B3B3B3;align=left;" parent="1" vertex="1">
          <mxGeometry x="1970.35" y="2010" width="371.15" height="30" as="geometry" />
        </mxCell>
        <mxCell id="PevCllGS_lHWabjhOKVi-23" value="&lt;h1 style=&quot;font-size: 30px;&quot;&gt;Mande uma mensagem:&lt;/h1&gt;" style="text;html=1;strokeColor=none;fillColor=none;spacing=5;spacingTop=-20;whiteSpace=wrap;overflow=hidden;rounded=0;fontSize=30;fontFamily=Verdana;fontColor=#B3B3B3;align=left;" parent="1" vertex="1">
          <mxGeometry x="1879.9999999999998" y="2100" width="479.65" height="46.75" as="geometry" />
        </mxCell>
        <mxCell id="PevCllGS_lHWabjhOKVi-24" value="Nome" style="rounded=1;whiteSpace=wrap;html=1;labelBackgroundColor=none;strokeColor=#B3B3B3;strokeWidth=4;fontFamily=Verdana;fontSize=22;fontColor=#B3B3B3;fillColor=none;gradientColor=none;gradientDirection=east;fontStyle=1;arcSize=9;" parent="1" vertex="1">
          <mxGeometry x="1887.8" y="2171" width="440" height="30.15" as="geometry" />
        </mxCell>
        <mxCell id="PevCllGS_lHWabjhOKVi-26" value="" style="html=1;verticalLabelPosition=bottom;align=center;labelBackgroundColor=#ffffff;verticalAlign=top;strokeWidth=2;strokeColor=#B3B3B3;shadow=0;dashed=0;shape=mxgraph.ios7.icons.documents;fontFamily=Verdana;fontSize=12;fontColor=#FFFFFF;fillColor=none;gradientColor=none;gradientDirection=north;" parent="1" vertex="1">
          <mxGeometry x="2243" y="1359.75" width="50" height="50" as="geometry" />
        </mxCell>
        <mxCell id="PevCllGS_lHWabjhOKVi-29" value="&lt;font color=&quot;#021138&quot; style=&quot;font-size: 22px;&quot;&gt;IMG&lt;/font&gt;" style="rounded=1;whiteSpace=wrap;html=1;labelBackgroundColor=none;strokeColor=none;fontFamily=Verdana;fontSize=11;fontColor=#FFFFFF;fillColor=#B3B3B3;gradientColor=none;gradientDirection=east;arcSize=6;" parent="1" vertex="1">
          <mxGeometry x="2483" y="1440" width="290" height="290" as="geometry" />
        </mxCell>
        <mxCell id="PevCllGS_lHWabjhOKVi-30" value="&lt;font color=&quot;#021138&quot; style=&quot;font-size: 22px;&quot;&gt;IMG&lt;/font&gt;" style="rounded=1;whiteSpace=wrap;html=1;labelBackgroundColor=none;strokeColor=none;fontFamily=Verdana;fontSize=11;fontColor=#FFFFFF;fillColor=#B3B3B3;gradientColor=none;gradientDirection=east;arcSize=6;" parent="1" vertex="1">
          <mxGeometry x="2166.5" y="1440" width="290" height="290" as="geometry" />
        </mxCell>
        <mxCell id="PevCllGS_lHWabjhOKVi-31" value="Email" style="rounded=1;whiteSpace=wrap;html=1;labelBackgroundColor=none;strokeColor=#B3B3B3;strokeWidth=4;fontFamily=Verdana;fontSize=22;fontColor=#B3B3B3;fillColor=none;gradientColor=none;gradientDirection=east;fontStyle=1;arcSize=9;" parent="1" vertex="1">
          <mxGeometry x="2363.8" y="2171" width="440" height="30.15" as="geometry" />
        </mxCell>
        <mxCell id="PevCllGS_lHWabjhOKVi-32" value="NÂº de Telefone" style="rounded=1;whiteSpace=wrap;html=1;labelBackgroundColor=none;strokeColor=#B3B3B3;strokeWidth=4;fontFamily=Verdana;fontSize=22;fontColor=#B3B3B3;fillColor=none;gradientColor=none;gradientDirection=east;fontStyle=1;arcSize=9;" parent="1" vertex="1">
          <mxGeometry x="1887.8" y="2220" width="440" height="30.15" as="geometry" />
        </mxCell>
        <mxCell id="PevCllGS_lHWabjhOKVi-33" value="Motivo do contato" style="rounded=1;whiteSpace=wrap;html=1;labelBackgroundColor=none;strokeColor=#B3B3B3;strokeWidth=4;fontFamily=Verdana;fontSize=22;fontColor=#B3B3B3;fillColor=none;gradientColor=none;gradientDirection=east;fontStyle=1;arcSize=9;" parent="1" vertex="1">
          <mxGeometry x="2363.8" y="2220" width="440" height="30.15" as="geometry" />
        </mxCell>
        <mxCell id="PevCllGS_lHWabjhOKVi-34" value="Mensagem" style="rounded=1;whiteSpace=wrap;html=1;labelBackgroundColor=none;strokeColor=#B3B3B3;strokeWidth=4;fontFamily=Verdana;fontSize=22;fontColor=#B3B3B3;fillColor=none;gradientColor=none;gradientDirection=east;fontStyle=1;arcSize=9;" parent="1" vertex="1">
          <mxGeometry x="1887.8" y="2270" width="916" height="200" as="geometry" />
        </mxCell>
        <mxCell id="PevCllGS_lHWabjhOKVi-36" value="&lt;h1 style=&quot;border-color: var(--border-color); font-family: Verdana; font-style: normal; font-variant-ligatures: normal; font-variant-caps: normal; letter-spacing: normal; orphans: 2; text-align: left; text-indent: 0px; text-transform: none; widows: 2; word-spacing: 0px; -webkit-text-stroke-width: 0px; text-decoration-thickness: initial; text-decoration-style: initial; text-decoration-color: initial;&quot;&gt;&lt;font style=&quot;border-color: var(--border-color);&quot; color=&quot;#ffffff&quot;&gt;Meu nome Ã© Pedro Cravo&lt;/font&gt;&lt;/h1&gt;" style="text;whiteSpace=wrap;html=1;" parent="1" vertex="1">
          <mxGeometry x="1423.5" y="300" width="174" height="100" as="geometry" />
        </mxCell>
        <mxCell id="PevCllGS_lHWabjhOKVi-37" value="&lt;h1&gt;&lt;br&gt;&lt;/h1&gt;&lt;p&gt;Lorem ipsum dolor sit amet, consectetur adipisicing elit, sed do eiusmod tempor incididunt ut labore et dolore magna aliqua.&lt;/p&gt;" style="text;html=1;strokeColor=none;fillColor=none;spacing=5;spacingTop=-20;whiteSpace=wrap;overflow=hidden;rounded=0;fontSize=12;fontFamily=Verdana;fontColor=#B3B3B3;" parent="1" vertex="1">
          <mxGeometry x="1423.5" y="333.38" width="256" height="110" as="geometry" />
        </mxCell>
      </root>
    </mxGraphModel>
  </diagram>
</mxfile>
